<svg width="28" height="39" viewBox="0 0 28 39" fill="none" xmlns="http://www.w3.org/2000/svg">
<path d="M13.6983 24.5005C6.24189 24.5005 0.175659 30.5667 0.175659 38.0231C0.175659 38.3866 0.46983 38.6807 0.833269 38.6807H26.5633C26.9268 38.6807 27.2209 38.3866 27.2209 38.0231C27.2209 30.5667 21.1547 24.5005 13.6983 24.5005ZM1.50841 37.3655C1.85125 30.9389 7.18797 25.8157 13.6983 25.8157C20.2086 25.8157 25.5454 30.9389 25.8882 37.3655H1.50841Z" fill="#20A0CD"/>
<path d="M13.4751 23.2981C17.7881 23.2981 21.2976 19.7878 21.2976 15.4726C21.2976 13.9482 20.8579 12.4778 20.0306 11.2086V1.50844C20.0306 1.145 19.7364 0.85083 19.373 0.85083H7.5781C7.21466 0.85083 6.92049 1.145 6.92049 1.50844V11.2042C6.09103 12.476 5.65131 13.9495 5.65131 15.4726C5.65087 19.7878 9.16075 23.2981 13.4751 23.2981ZM8.23527 2.16649H18.7149V10.9114H8.23527V2.16649ZM7.83632 12.2262H19.1161C19.6838 13.2104 19.9824 14.3235 19.9824 15.4726C19.9819 19.0627 17.063 21.9829 13.4751 21.9829C9.88631 21.9829 6.96653 19.0622 6.96653 15.4726C6.96653 14.3252 7.26727 13.2117 7.83632 12.2262Z" fill="#20A0CD"/>
<path d="M15.7668 5.95385H14.1328V4.31728C14.1328 3.95384 13.8387 3.65967 13.4752 3.65967C13.1118 3.65967 12.8176 3.95384 12.8176 4.31728V5.95385H11.1832C10.8198 5.95385 10.5256 6.24802 10.5256 6.61146C10.5256 6.9749 10.8198 7.26907 11.1832 7.26907H12.8176V8.90345C12.8176 9.26688 13.1118 9.56105 13.4752 9.56105C13.8387 9.56105 14.1328 9.26688 14.1328 8.90345V7.26907H15.7668C16.1302 7.26907 16.4244 6.9749 16.4244 6.61146C16.4244 6.24802 16.1298 5.95385 15.7668 5.95385Z" fill="#20A0CD"/>
</svg>
