<svg width="66" height="44" viewBox="0 0 66 44" fill="none" xmlns="http://www.w3.org/2000/svg">
<path d="M21.6875 17.7877H12.0648C10.9588 17.7884 9.89565 17.3601 9.09914 16.5928C8.30262 15.8255 7.83486 14.7791 7.79431 13.6738V13.3891C7.79431 6.27171 11.8512 0.364258 16.8334 0.364258C21.8156 0.364258 25.8868 6.21477 25.8868 13.3891V13.6738C25.8468 14.7669 25.389 15.8029 24.6077 16.5683C23.8264 17.3338 22.7811 17.7702 21.6875 17.7877ZM16.8761 2.44253C13.0327 2.44253 9.9153 7.35356 9.9153 13.3891V13.6453C9.93384 14.2017 10.1689 14.7288 10.5704 15.1144C10.9719 15.4999 11.5081 15.7134 12.0648 15.7094H21.6875C22.2456 15.7135 22.7833 15.5005 23.1871 15.1153C23.5909 14.7301 23.8291 14.203 23.8512 13.6453V13.3891C23.8512 7.35356 20.748 2.44253 16.8761 2.44253Z" fill="#38BCEA"/>
<path d="M18.5133 13.5884H15.2535C14.7388 13.5884 14.2449 13.3849 13.8795 13.0223C13.5142 12.6596 13.3071 12.1672 13.3033 11.6525V8.39267C13.3071 7.8766 13.5137 7.38276 13.8787 7.01784C14.2436 6.65292 14.7375 6.44623 15.2535 6.4425H18.5133C19.028 6.44626 19.5204 6.65339 19.8831 7.01871C20.2457 7.38403 20.4493 7.87791 20.4492 8.39267V11.6525C20.4492 12.1659 20.2453 12.6583 19.8822 13.0214C19.5192 13.3844 19.0267 13.5884 18.5133 13.5884ZM15.3816 11.5101H18.371V8.52082H15.3816V11.5101Z" fill="#38BCEA"/>
<path d="M16.8759 8.52078C16.6003 8.52078 16.336 8.41126 16.1411 8.21638C15.9463 8.02151 15.8368 7.75722 15.8368 7.48162V6.30015C15.8368 6.02455 15.9463 5.76021 16.1411 5.56534C16.336 5.37046 16.6003 5.26099 16.8759 5.26099C17.1515 5.26099 17.4158 5.37046 17.6107 5.56534C17.8056 5.76021 17.9151 6.02455 17.9151 6.30015V7.52432C17.904 7.79245 17.7897 8.0459 17.596 8.23163C17.4023 8.41737 17.1443 8.521 16.8759 8.52078Z" fill="#38BCEA"/>
<path d="M16.8759 14.3428C16.6003 14.3428 16.336 14.2333 16.1411 14.0384C15.9463 13.8435 15.8368 13.5792 15.8368 13.3036V12.5492C15.8368 12.2736 15.9463 12.0093 16.1411 11.8144C16.336 11.6195 16.6003 11.51 16.8759 11.51C17.1515 11.51 17.4158 11.6195 17.6107 11.8144C17.8056 12.0093 17.9151 12.2736 17.9151 12.5492V13.3036C17.9151 13.5792 17.8056 13.8435 17.6107 14.0384C17.4158 14.2333 17.1515 14.3428 16.8759 14.3428Z" fill="#38BCEA"/>
<path d="M37.7017 17.7877H28.0789C26.9729 17.7884 25.9098 17.3601 25.1133 16.5928C24.3168 15.8255 23.849 14.7791 23.8085 13.6738V13.3891C23.8085 6.27171 27.8654 0.364258 32.8476 0.364258C37.8298 0.364258 41.901 6.21477 41.901 13.3891V13.688C41.8574 14.7786 41.398 15.8111 40.6171 16.5735C39.8361 17.3359 38.7929 17.7704 37.7017 17.7877ZM32.8903 2.44253C29.0469 2.44253 25.9295 7.35356 25.9295 13.3891V13.6453C25.948 14.2017 26.1831 14.7288 26.5846 15.1144C26.9861 15.4999 27.5223 15.7134 28.0789 15.7094H37.7017C38.2597 15.7135 38.7975 15.5005 39.2013 15.1153C39.6051 14.7301 39.8432 14.203 39.8654 13.6453V13.3891C39.8654 7.35356 36.7337 2.44253 32.8903 2.44253Z" fill="#38BCEA"/>
<path d="M34.5275 13.5884H31.2677C31.0099 13.5941 30.7536 13.5482 30.5137 13.4535C30.2739 13.3588 30.0554 13.2171 29.8711 13.0367C29.6868 12.8564 29.5404 12.641 29.4404 12.4033C29.3405 12.1656 29.289 11.9103 29.2891 11.6525V8.39267C29.289 7.87791 29.4926 7.38403 29.8552 7.01871C30.2179 6.65339 30.7103 6.44626 31.225 6.4425H34.4848C34.997 6.44998 35.4858 6.65874 35.8454 7.02366C36.205 7.38858 36.4065 7.88035 36.4065 8.39267V11.6525C36.4067 12.1562 36.2106 12.6402 35.8597 13.0017C35.5089 13.3631 35.031 13.5736 34.5275 13.5884ZM31.3958 11.5101H34.3851V8.52082H31.3958V11.5101Z" fill="#38BCEA"/>
<path d="M32.8902 8.52078C32.6146 8.52078 32.3503 8.41126 32.1554 8.21638C31.9605 8.02151 31.8511 7.75722 31.8511 7.48162V6.30015C31.8511 6.02455 31.9605 5.76021 32.1554 5.56534C32.3503 5.37046 32.6146 5.26099 32.8902 5.26099C33.1658 5.26099 33.4301 5.37046 33.625 5.56534C33.8199 5.76021 33.9294 6.02455 33.9294 6.30015V7.52432C33.9183 7.79245 33.804 8.0459 33.6103 8.23163C33.4166 8.41737 33.1586 8.521 32.8902 8.52078Z" fill="#38BCEA"/>
<path d="M32.8902 14.3428C32.6146 14.3428 32.3503 14.2333 32.1554 14.0384C31.9605 13.8435 31.8511 13.5792 31.8511 13.3036V12.5492C31.8511 12.2736 31.9605 12.0093 32.1554 11.8144C32.3503 11.6195 32.6146 11.51 32.8902 11.51C33.1658 11.51 33.4301 11.6195 33.625 11.8144C33.8199 12.0093 33.9294 12.2736 33.9294 12.5492V13.3036C33.9294 13.5792 33.8199 13.8435 33.625 14.0384C33.4301 14.2333 33.1658 14.3428 32.8902 14.3428Z" fill="#38BCEA"/>
<path d="M53.716 17.7877H44.0932C42.9872 17.7884 41.9241 17.3601 41.1276 16.5928C40.3311 15.8255 39.8633 14.7791 39.8228 13.6738V13.3891C39.8228 6.27171 43.8797 0.364258 48.8619 0.364258C53.8441 0.364258 57.9152 6.21477 57.9152 13.3891V13.688C57.8717 14.7786 57.4123 15.8111 56.6314 16.5735C55.8504 17.3359 54.8072 17.7704 53.716 17.7877ZM48.9046 2.44253C45.0612 2.44253 41.9437 7.35356 41.9437 13.3891V13.6453C41.9623 14.2017 42.1974 14.7288 42.5989 15.1144C43.0004 15.4999 43.5366 15.7134 44.0932 15.7094H53.716C54.274 15.7135 54.8118 15.5005 55.2156 15.1153C55.6193 14.7301 55.8575 14.203 55.8797 13.6453V13.3891C55.8797 7.35356 52.748 2.44253 48.9046 2.44253Z" fill="#38BCEA"/>
<path d="M50.5414 13.5884H47.2816C46.7682 13.5884 46.2758 13.3844 45.9127 13.0214C45.5497 12.6583 45.3457 12.1659 45.3457 11.6525V8.39267C45.3457 7.87791 45.5492 7.38403 45.9119 7.01871C46.2745 6.65339 46.7669 6.44626 47.2816 6.4425H50.5414C51.0562 6.44626 51.5486 6.65339 51.9112 7.01871C52.2739 7.38403 52.4774 7.87791 52.4774 8.39267V11.6525C52.4774 12.1659 52.2734 12.6583 51.9103 13.0214C51.5473 13.3844 51.0549 13.5884 50.5414 13.5884ZM47.4098 11.5101H50.3991V8.52082H47.4098V11.5101Z" fill="#38BCEA"/>
<path d="M48.9044 8.52078C48.6288 8.52078 48.3645 8.41126 48.1696 8.21638C47.9747 8.02151 47.8652 7.75722 47.8652 7.48162V6.30015C47.8652 6.02455 47.9747 5.76021 48.1696 5.56534C48.3645 5.37046 48.6288 5.26099 48.9044 5.26099C49.18 5.26099 49.4443 5.37046 49.6392 5.56534C49.834 5.76021 49.9435 6.02455 49.9435 6.30015V7.52432C49.9325 7.79245 49.8182 8.0459 49.6245 8.23163C49.4308 8.41737 49.1727 8.521 48.9044 8.52078Z" fill="#38BCEA"/>
<path d="M48.9044 14.3428C48.6288 14.3428 48.3645 14.2333 48.1696 14.0384C47.9747 13.8435 47.8652 13.5792 47.8652 13.3036V12.5492C47.8652 12.2736 47.9747 12.0093 48.1696 11.8144C48.3645 11.6195 48.6288 11.51 48.9044 11.51C49.18 11.51 49.4443 11.6195 49.6392 11.8144C49.834 12.0093 49.9435 12.2736 49.9435 12.5492V13.3036C49.9435 13.5792 49.834 13.8435 49.6392 14.0384C49.4443 14.2333 49.18 14.3428 48.9044 14.3428Z" fill="#38BCEA"/>
<path d="M35.4241 11.0405C35.1529 11.0366 34.8934 10.9298 34.6981 10.7415C34.5 10.5459 34.3874 10.2797 34.385 10.0013V8.57782H31.3956V10.0013C31.3912 10.2766 31.2847 10.5404 31.0967 10.7415C30.9984 10.8408 30.8807 10.9186 30.7508 10.97C30.6209 11.0215 30.4818 11.0455 30.3423 11.0405C26.4989 11.0405 22.7836 10.8269 19.3245 10.5565C19.064 10.535 18.8211 10.4161 18.6443 10.2235C18.4676 10.0309 18.3699 9.77874 18.3708 9.51732V8.52091H15.3814V9.01909C15.3847 9.16637 15.3561 9.31263 15.2977 9.44786C15.2392 9.58309 15.1523 9.70415 15.0429 9.80277C14.9335 9.90139 14.8041 9.97524 14.6635 10.0193C14.523 10.0634 14.3746 10.0767 14.2284 10.0583C0.705322 8.42125 0.705322 5.9017 0.705322 4.9622C0.735067 4.70937 0.856589 4.47623 1.04683 4.30706C1.23706 4.13789 1.48277 4.04446 1.73735 4.04446C1.99192 4.04446 2.23764 4.13789 2.42788 4.30706C2.61811 4.47623 2.73964 4.70937 2.76938 4.9622C3.01137 5.44618 5.34589 6.84119 13.3886 7.89457C13.5007 7.48591 13.7439 7.12533 14.0808 6.86819C14.4176 6.61105 14.8295 6.47155 15.2533 6.47109H18.5131C19.0279 6.47485 19.5202 6.68197 19.8829 7.04729C20.2456 7.41262 20.4491 7.90649 20.449 8.42125V8.59207C23.296 8.79135 26.2426 8.91945 29.3316 8.97639V8.42125C29.3316 7.90649 29.5351 7.41262 29.8977 7.04729C30.2604 6.68197 30.7528 6.47485 31.2675 6.47109H34.5273C35.0272 6.4893 35.501 6.69888 35.8507 7.05655C36.2004 7.41421 36.3993 7.89258 36.4063 8.39276V8.94794C39.481 8.94794 42.4703 8.7629 45.2888 8.56361V8.39276C45.2888 7.878 45.4923 7.38412 45.855 7.0188C46.2176 6.65347 46.71 6.44635 47.2248 6.44259H50.4846C50.9077 6.4454 51.3185 6.58581 51.6549 6.8426C51.9913 7.09938 52.235 7.4586 52.3493 7.86608C60.4774 6.79846 62.7692 5.38925 62.9685 4.9195C62.9685 4.78557 62.9951 4.65295 63.0468 4.52939C63.0985 4.40584 63.1742 4.2938 63.2695 4.19976C63.3649 4.10572 63.478 4.03155 63.6023 3.9816C63.7266 3.93165 63.8595 3.90691 63.9934 3.90879C64.1318 3.91065 64.2684 3.93975 64.3955 3.99441C64.5226 4.04907 64.6376 4.12825 64.7341 4.22739C64.8306 4.32653 64.9067 4.4437 64.9579 4.57223C65.0091 4.70075 65.0344 4.83807 65.0326 4.9764C65.0326 5.9159 65.0326 8.4355 51.5095 10.0725C51.3631 10.0884 51.215 10.0735 51.0747 10.0286C50.9344 9.98377 50.8051 9.90999 50.6951 9.81207C50.5851 9.71415 50.4969 9.59424 50.4361 9.46011C50.3753 9.32598 50.3433 9.1806 50.3422 9.03334V8.53511H47.3529V9.53157C47.3538 9.79299 47.2561 10.0451 47.0793 10.2377C46.9026 10.4303 46.6597 10.5492 46.3992 10.5707C42.9401 10.8412 39.2817 10.9978 35.3814 11.0547L35.4241 11.0405Z" fill="#38BCEA"/>
<path d="M16.8758 43.1115C11.8936 43.1115 7.83667 37.261 7.83667 30.0867V29.802C7.87722 28.6967 8.34498 27.6503 9.14149 26.883C9.93801 26.1157 11.0011 25.6874 12.1071 25.6881H21.7299C22.8335 25.6872 23.8946 26.1136 24.6907 26.8779C25.4868 27.6422 25.9562 28.685 26.0003 29.7878V30.0867C25.9292 37.261 21.8722 43.1115 16.8758 43.1115ZM12.0644 27.7664C11.5078 27.7624 10.9716 27.9759 10.5701 28.3614C10.1686 28.747 9.9335 29.2741 9.91496 29.8305V30.0867C9.91496 36.1222 13.0324 41.0333 16.8758 41.0333C20.7192 41.0333 23.8509 36.1222 23.8509 30.0867V29.8305C23.8287 29.2728 23.5906 28.7457 23.1868 28.3605C22.783 27.9753 22.2452 27.7623 21.6872 27.7664H12.0644Z" fill="#38BCEA"/>
<path d="M18.5133 37.019H15.2535C14.7388 37.019 14.2449 36.8155 13.8795 36.4528C13.5142 36.0902 13.3071 35.5978 13.3033 35.083V31.8233C13.3071 31.3085 13.5142 30.8162 13.8795 30.4535C14.2449 30.0908 14.7388 29.8873 15.2535 29.8873H18.5133C19.0267 29.8873 19.5192 30.0913 19.8822 30.4544C20.2453 30.8174 20.4492 31.3098 20.4492 31.8233V35.083C20.4492 35.5965 20.2453 36.0889 19.8822 36.452C19.5192 36.815 19.0267 37.019 18.5133 37.019ZM15.3816 34.9549H18.371V31.9656H15.3816V34.9549Z" fill="#38BCEA"/>
<path d="M16.8762 38.2146C16.7398 38.2146 16.6046 38.1877 16.4786 38.1355C16.3525 38.0833 16.2379 38.0067 16.1414 37.9102C16.0449 37.8137 15.9684 37.6992 15.9162 37.5731C15.8639 37.447 15.8371 37.3119 15.8371 37.1754V35.994C15.8199 35.8482 15.8338 35.7006 15.8779 35.5606C15.9219 35.4207 15.9951 35.2916 16.0926 35.182C16.1901 35.0724 16.3097 34.9846 16.4435 34.9246C16.5773 34.8645 16.7224 34.8334 16.8691 34.8334C17.0158 34.8334 17.1609 34.8645 17.2947 34.9246C17.4285 34.9846 17.5481 35.0724 17.6456 35.182C17.7431 35.2916 17.8163 35.4207 17.8603 35.5606C17.9044 35.7006 17.9183 35.8482 17.9011 35.994V37.1754C17.9011 37.4486 17.7936 37.7108 17.6018 37.9052C17.41 38.0997 17.1493 38.2108 16.8762 38.2146Z" fill="#38BCEA"/>
<path d="M16.8759 31.9656C16.6003 31.9656 16.336 31.8561 16.1411 31.6612C15.9463 31.4663 15.8368 31.202 15.8368 30.9264V30.172C15.8368 30.0355 15.8637 29.9004 15.9159 29.7743C15.9681 29.6482 16.0446 29.5337 16.1411 29.4372C16.2376 29.3407 16.3522 29.2641 16.4783 29.2119C16.6043 29.1597 16.7395 29.1328 16.8759 29.1328C17.0124 29.1328 17.1475 29.1597 17.2736 29.2119C17.3997 29.2641 17.5142 29.3407 17.6107 29.4372C17.7072 29.5337 17.7837 29.6482 17.836 29.7743C17.8882 29.9004 17.9151 30.0355 17.9151 30.172V30.9264C17.9151 31.202 17.8056 31.4663 17.6107 31.6612C17.4158 31.8561 17.1515 31.9656 16.8759 31.9656Z" fill="#38BCEA"/>
<path d="M32.8901 43.1115C27.9079 43.1115 23.851 37.261 23.851 30.0867V29.802C23.8915 28.6967 24.3593 27.6503 25.1558 26.883C25.9523 26.1157 27.0154 25.6874 28.1214 25.6881H37.7442C38.8478 25.6872 39.9089 26.1136 40.705 26.8779C41.5011 27.6422 41.9705 28.685 42.0146 29.7878V30.0867C41.9434 37.261 37.8296 43.1115 32.8901 43.1115ZM28.0787 27.7664C27.5221 27.7624 26.9859 27.9759 26.5844 28.3614C26.1828 28.747 25.9478 29.2741 25.9292 29.8305V30.0867C25.9292 36.1222 29.0467 41.0333 32.8901 41.0333C36.7335 41.0333 39.8651 36.1222 39.8651 30.0867V29.8305C39.843 29.2728 39.6048 28.7457 39.201 28.3605C38.7973 27.9753 38.2595 27.7623 37.7015 27.7664H28.0787Z" fill="#38BCEA"/>
<path d="M34.5275 37.019H31.2677C31.0099 37.0247 30.7536 36.9788 30.5137 36.8841C30.2739 36.7893 30.0554 36.6476 29.8711 36.4673C29.6868 36.287 29.5404 36.0716 29.4404 35.8339C29.3405 35.5962 29.289 35.3409 29.2891 35.083V31.8233C29.2891 31.3098 29.493 30.8174 29.8561 30.4544C30.2191 30.0913 30.7116 29.8873 31.225 29.8873H34.4848C34.9958 29.8911 35.4845 30.0967 35.8445 30.4594C36.2045 30.822 36.4065 31.3123 36.4065 31.8233V35.083C36.4067 35.5868 36.2106 36.0708 35.8597 36.4322C35.5089 36.7937 35.031 37.0042 34.5275 37.019ZM31.3958 34.9549H34.3851V31.9656H31.3958V34.9549Z" fill="#38BCEA"/>
<path d="M32.8902 38.2147C32.7537 38.2147 32.6186 38.1879 32.4925 38.1356C32.3665 38.0834 32.2519 38.0069 32.1554 37.9104C32.0589 37.8139 31.9824 37.6993 31.9302 37.5732C31.8779 37.4472 31.8511 37.312 31.8511 37.1756V35.9941C31.8511 35.8577 31.8779 35.7225 31.9302 35.5965C31.9824 35.4704 32.0589 35.3558 32.1554 35.2593C32.2519 35.1629 32.3665 35.0863 32.4925 35.0341C32.6186 34.9818 32.7537 34.955 32.8902 34.955C33.0267 34.955 33.1618 34.9818 33.2879 35.0341C33.4139 35.0863 33.5285 35.1629 33.625 35.2593C33.7215 35.3558 33.798 35.4704 33.8503 35.5965C33.9025 35.7225 33.9294 35.8577 33.9294 35.9941V37.1756C33.9294 37.312 33.9025 37.4472 33.8503 37.5732C33.798 37.6993 33.7215 37.8139 33.625 37.9104C33.5285 38.0069 33.4139 38.0834 33.2879 38.1356C33.1618 38.1879 33.0267 38.2147 32.8902 38.2147Z" fill="#38BCEA"/>
<path d="M32.8902 31.9656C32.6146 31.9656 32.3503 31.8561 32.1554 31.6612C31.9605 31.4663 31.8511 31.202 31.8511 30.9264V30.172C31.8511 30.0355 31.8779 29.9004 31.9302 29.7743C31.9824 29.6482 32.0589 29.5337 32.1554 29.4372C32.2519 29.3407 32.3665 29.2641 32.4925 29.2119C32.6186 29.1597 32.7537 29.1328 32.8902 29.1328C33.0267 29.1328 33.1618 29.1597 33.2879 29.2119C33.4139 29.2641 33.5285 29.3407 33.625 29.4372C33.7215 29.5337 33.798 29.6482 33.8503 29.7743C33.9025 29.9004 33.9294 30.0355 33.9294 30.172V30.9264C33.9294 31.202 33.8199 31.4663 33.625 31.6612C33.4301 31.8561 33.1658 31.9656 32.8902 31.9656Z" fill="#38BCEA"/>
<path d="M48.9042 43.1115C43.922 43.1115 39.8651 37.261 39.8651 30.0867V29.7878C39.9093 28.685 40.3786 27.6422 41.1747 26.8779C41.9709 26.1136 43.032 25.6872 44.1356 25.6881H53.7583C54.8619 25.6872 55.923 26.1136 56.7192 26.8779C57.5153 27.6422 57.9846 28.685 58.0288 29.7878V30.0867C57.9576 37.261 53.9007 43.1115 48.9042 43.1115ZM44.0929 27.7664C43.5362 27.7624 43 27.9759 42.5985 28.3614C42.197 28.747 41.9619 29.2741 41.9434 29.8305V30.0867C41.9434 36.1222 45.0608 41.0333 48.9042 41.0333C52.7476 41.0333 55.8793 36.1222 55.8793 30.0867V29.8305C55.8571 29.2728 55.619 28.7457 55.2152 28.3605C54.8114 27.9753 54.2737 27.7623 53.7156 27.7664H44.0929Z" fill="#38BCEA"/>
<path d="M50.5414 37.019H47.2816C46.7682 37.019 46.2758 36.815 45.9127 36.452C45.5497 36.0889 45.3457 35.5965 45.3457 35.083V31.8233C45.3457 31.3098 45.5497 30.8174 45.9127 30.4544C46.2758 30.0913 46.7682 29.8873 47.2816 29.8873H50.5414C51.0549 29.8873 51.5473 30.0913 51.9103 30.4544C52.2734 30.8174 52.4774 31.3098 52.4774 31.8233V35.083C52.4774 35.5965 52.2734 36.0889 51.9103 36.452C51.5473 36.815 51.0549 37.019 50.5414 37.019ZM47.4098 34.9549H50.3991V31.9656H47.4098V34.9549Z" fill="#38BCEA"/>
<path d="M48.9044 38.2147C48.7679 38.2147 48.6328 38.1879 48.5067 38.1356C48.3806 38.0834 48.2661 38.0069 48.1696 37.9104C48.0731 37.8139 47.9966 37.6993 47.9443 37.5732C47.8921 37.4472 47.8652 37.312 47.8652 37.1756V35.9941C47.8652 35.7185 47.9747 35.4542 48.1696 35.2593C48.3645 35.0645 48.6288 34.955 48.9044 34.955C49.18 34.955 49.4443 35.0645 49.6392 35.2593C49.834 35.4542 49.9435 35.7185 49.9435 35.9941V37.1756C49.9435 37.312 49.9166 37.4472 49.8644 37.5732C49.8122 37.6993 49.7357 37.8139 49.6392 37.9104C49.5427 38.0069 49.4281 38.0834 49.302 38.1356C49.176 38.1879 49.0408 38.2147 48.9044 38.2147Z" fill="#38BCEA"/>
<path d="M48.9044 31.9656C48.6288 31.9656 48.3645 31.8561 48.1696 31.6612C47.9747 31.4663 47.8652 31.202 47.8652 30.9264V30.172C47.8652 29.8964 47.9747 29.632 48.1696 29.4372C48.3645 29.2423 48.6288 29.1328 48.9044 29.1328C49.18 29.1328 49.4443 29.2423 49.6392 29.4372C49.834 29.632 49.9435 29.8964 49.9435 30.172V30.9264C49.9435 31.202 49.834 31.4663 49.6392 31.6612C49.4443 31.8561 49.18 31.9656 48.9044 31.9656Z" fill="#38BCEA"/>
<path d="M1.73033 39.5812C1.45344 39.5738 1.19063 39.4576 0.998804 39.2578C0.806979 39.0579 0.70158 38.7906 0.705424 38.5136C0.705424 37.5741 0.705424 35.0546 14.2285 33.4176C14.3747 33.3991 14.5231 33.4124 14.6636 33.4565C14.8042 33.5006 14.9336 33.5744 15.043 33.673C15.1525 33.7716 15.2393 33.8927 15.2978 34.0279C15.3562 34.1632 15.3848 34.3094 15.3815 34.4567V34.9549H18.3709V33.9585C18.37 33.6971 18.4677 33.4449 18.6444 33.2523C18.8212 33.0597 19.0641 32.9408 19.3246 32.9193C22.7837 32.6489 26.442 32.4923 30.3424 32.4353C30.4819 32.4303 30.621 32.4543 30.7509 32.5058C30.8808 32.5572 30.9985 32.635 31.0968 32.7343C31.2872 32.9339 31.3941 33.1987 31.3957 33.4745V34.898H34.3851V33.4745C34.3855 33.3365 34.4134 33.2 34.4672 33.0729C34.5209 32.9458 34.5995 32.8307 34.6982 32.7343C34.7943 32.6361 34.9097 32.5589 35.0371 32.5075C35.1645 32.456 35.3011 32.4315 35.4384 32.4353C39.2961 32.4353 43.0114 32.6489 46.4562 32.9193C46.7167 32.9408 46.9596 33.0597 47.1364 33.2523C47.3131 33.4449 47.4108 33.6971 47.4099 33.9585V34.9549H50.3993V34.4567C50.4004 34.3095 50.4324 34.164 50.4932 34.0299C50.554 33.8958 50.6422 33.7759 50.7522 33.678C50.8622 33.5801 50.9915 33.5063 51.1317 33.4614C51.272 33.4166 51.4201 33.4016 51.5665 33.4176C65.0896 35.0546 65.0896 37.5741 65.0896 38.5136C65.0896 38.7892 64.9801 39.0535 64.7852 39.2484C64.5904 39.4433 64.3261 39.5528 64.0505 39.5528C63.7749 39.5528 63.5105 39.4433 63.3157 39.2484C63.1208 39.0535 63.0113 38.7892 63.0113 38.5136C62.8263 38.1008 60.5345 36.6915 52.4064 35.6666C52.2942 36.0753 52.051 36.4359 51.7142 36.693C51.3773 36.9502 50.9654 37.0897 50.5416 37.0901H47.2818C46.7684 37.0901 46.276 36.8862 45.9129 36.5231C45.5498 36.1601 45.3459 35.6676 45.3459 35.1542V34.9834C42.4989 34.7841 39.5523 34.656 36.4633 34.599V35.1542C36.4633 35.6676 36.2594 36.1601 35.8963 36.5231C35.5333 36.8862 35.0408 37.0901 34.5274 37.0901H31.2676C31.0037 37.0961 30.7414 37.0481 30.4967 36.949C30.2521 36.8499 30.0303 36.7018 29.8449 36.5138C29.6596 36.3258 29.5147 36.1019 29.4191 35.8559C29.3235 35.6098 29.2792 35.3468 29.289 35.083V34.5706C26.2 34.5706 23.2249 34.7556 20.4064 34.9549V35.1257C20.4064 35.6392 20.2025 36.1316 19.8394 36.4946C19.4764 36.8577 18.9839 37.0617 18.4705 37.0617H15.2534C14.8296 37.0612 14.4177 36.9217 14.0809 36.6646C13.744 36.4074 13.5008 36.0468 13.3887 35.6382C5.26058 36.7058 2.95453 38.1151 2.76948 38.5848C2.76765 38.7188 2.7392 38.851 2.68579 38.9739C2.63239 39.0967 2.5551 39.2077 2.45841 39.3005C2.36172 39.3932 2.24756 39.4657 2.12257 39.5139C1.99757 39.5621 1.86424 39.585 1.73033 39.5812Z" fill="#38BCEA"/>
</svg>
