<svg width="45" height="55" viewBox="0 0 45 55" fill="none" xmlns="http://www.w3.org/2000/svg">
<path d="M32.5346 54.8909C32.1564 54.8928 31.7798 54.8426 31.4153 54.7417C30.4377 54.4321 29.5887 53.8106 28.9983 52.9722C28.4079 52.1338 28.1089 51.1249 28.1469 50.1003V44.1306C28.2498 42.5066 27.7095 40.9073 26.6426 39.6785C25.5758 38.4497 24.0683 37.6902 22.4459 37.564C19.3118 37.564 16.7449 40.5488 16.7449 44.1306V50.1003C16.7829 51.1249 16.4838 52.1338 15.8934 52.9722C15.3031 53.8106 14.454 54.4321 13.4765 54.7417C12.587 54.9845 11.6421 54.9241 10.7908 54.5701C9.93948 54.216 9.23037 53.5885 8.77539 52.7866C0.0597036 38.6833 0 17.1478 0 16.2375C0 7.28298 6.50692 0 14.5062 0C17.3701 0.00537552 20.1554 0.937288 22.4459 2.65649C24.7373 0.939205 27.522 0.00751183 30.3855 0C38.3848 0 44.8918 7.28298 44.8918 16.2375C44.8918 17.1478 44.8918 38.6236 36.1164 52.7866C35.7524 53.4172 35.231 53.9427 34.6032 54.3115C33.9754 54.6803 33.2626 54.88 32.5346 54.8909V54.8909ZM22.4459 35.3254C26.7888 35.3254 30.3258 39.2504 30.3258 44.0709V50.0406C30.2815 50.5914 30.4237 51.141 30.7296 51.6012C31.0355 52.0614 31.4872 52.4053 32.0122 52.5777C32.4455 52.698 32.9072 52.6641 33.3183 52.4817C33.7293 52.2993 34.0643 51.9798 34.2658 51.5778C42.6532 38.0117 42.7128 16.3867 42.7128 16.1777C42.7128 8.4172 37.176 2.11922 30.3855 2.11922C27.7284 2.13074 25.1623 3.0884 23.1473 4.82049C22.9485 4.98037 22.701 5.06754 22.4459 5.06754C22.1907 5.06754 21.9433 4.98037 21.7445 4.82049C19.7295 3.0884 17.1634 2.13074 14.5062 2.11922C7.71577 2.11922 2.17893 8.4172 2.17893 16.1777C2.17893 16.3867 2.17891 38.0117 10.626 51.5778C10.8297 51.9778 11.1649 52.2956 11.5753 52.4777C11.9856 52.6598 12.4462 52.6951 12.8795 52.5777C13.4073 52.408 13.8624 52.0652 14.1712 51.6048C14.4799 51.1444 14.6243 50.5933 14.5809 50.0406V44.0709C14.5809 39.2057 18.103 35.2806 22.4459 35.2806V35.3254Z" fill="#38BCEA"/>
<path d="M10.618 10.8772C10.4822 10.8772 10.3477 10.8502 10.2224 10.7978C10.0971 10.7455 9.98351 10.6687 9.88815 10.572C9.79279 10.4753 9.71761 10.3607 9.66695 10.2347C9.61629 10.1087 9.59117 9.97388 9.59306 9.8381V8.67083C9.57592 8.52513 9.58981 8.37745 9.63385 8.2375C9.67789 8.09756 9.75107 7.9685 9.84856 7.85887C9.94605 7.74924 10.0656 7.66152 10.1995 7.60144C10.3333 7.54135 10.4784 7.51025 10.6251 7.51025C10.7718 7.51025 10.9168 7.54135 11.0507 7.60144C11.1845 7.66152 11.3041 7.74924 11.4016 7.85887C11.4991 7.9685 11.5723 8.09756 11.6163 8.2375C11.6603 8.37745 11.6742 8.52513 11.6571 8.67083V9.8381C11.659 9.97509 11.6335 10.111 11.5819 10.238C11.5304 10.3649 11.4539 10.4802 11.357 10.5771C11.2601 10.674 11.1448 10.7505 11.0179 10.802C10.8909 10.8536 10.755 10.8791 10.618 10.8772V10.8772Z" fill="#38BCEA"/>
<path d="M10.618 16.7566C10.4822 16.7566 10.3477 16.7296 10.2224 16.6772C10.0971 16.6248 9.98351 16.5481 9.88815 16.4514C9.79279 16.3547 9.71761 16.2401 9.66695 16.1141C9.61629 15.9881 9.59117 15.8532 9.59306 15.7174V14.5502C9.57592 14.4045 9.58981 14.2568 9.63385 14.1169C9.67789 13.977 9.75107 13.8479 9.84856 13.7383C9.94605 13.6286 10.0656 13.5409 10.1995 13.4808C10.3333 13.4207 10.4784 13.3896 10.6251 13.3896C10.7718 13.3896 10.9168 13.4207 11.0507 13.4808C11.1845 13.5409 11.3041 13.6286 11.4016 13.7383C11.4991 13.8479 11.5723 13.977 11.6163 14.1169C11.6603 14.2568 11.6742 14.4045 11.6571 14.5502V15.7174C11.659 15.8544 11.6335 15.9904 11.5819 16.1174C11.5304 16.2443 11.4539 16.3596 11.357 16.4565C11.2601 16.5534 11.1448 16.6299 11.0179 16.6814C10.8909 16.733 10.755 16.7585 10.618 16.7566V16.7566Z" fill="#38BCEA"/>
<path d="M14.1481 13.2259H12.9809C12.8352 13.2431 12.6875 13.2292 12.5475 13.1851C12.4076 13.1411 12.2786 13.0679 12.1689 12.9705C12.0593 12.873 11.9716 12.7534 11.9115 12.6195C11.8514 12.4857 11.8203 12.3406 11.8203 12.1939C11.8203 12.0472 11.8514 11.9022 11.9115 11.7683C11.9716 11.6345 12.0593 11.5149 12.1689 11.4174C12.2786 11.3199 12.4076 11.2467 12.5475 11.2027C12.6875 11.1587 12.8352 11.1448 12.9809 11.1619H14.1481C14.2938 11.1448 14.4415 11.1587 14.5815 11.2027C14.7214 11.2467 14.8504 11.3199 14.9601 11.4174C15.0697 11.5149 15.1574 11.6345 15.2175 11.7683C15.2776 11.9022 15.3087 12.0472 15.3087 12.1939C15.3087 12.3406 15.2776 12.4857 15.2175 12.6195C15.1574 12.7534 15.0697 12.873 14.9601 12.9705C14.8504 13.0679 14.7214 13.1411 14.5815 13.1851C14.4415 13.2292 14.2938 13.2431 14.1481 13.2259V13.2259Z" fill="#38BCEA"/>
<path d="M8.26921 13.2259H7.10196C6.95626 13.2431 6.80858 13.2292 6.66863 13.1851C6.52869 13.1411 6.39965 13.0679 6.29002 12.9705C6.18039 12.873 6.09263 12.7534 6.03255 12.6195C5.97246 12.4857 5.94141 12.3406 5.94141 12.1939C5.94141 12.0472 5.97246 11.9022 6.03255 11.7683C6.09263 11.6345 6.18039 11.5149 6.29002 11.4174C6.39965 11.3199 6.52869 11.2467 6.66863 11.2027C6.80858 11.1587 6.95626 11.1448 7.10196 11.1619H8.26921C8.41491 11.1448 8.56259 11.1587 8.70253 11.2027C8.84248 11.2467 8.97151 11.3199 9.08115 11.4174C9.19078 11.5149 9.27854 11.6345 9.33862 11.7683C9.39871 11.9022 9.42976 12.0472 9.42976 12.1939C9.42976 12.3406 9.39871 12.4857 9.33862 12.6195C9.27854 12.7534 9.19078 12.873 9.08115 12.9705C8.97151 13.0679 8.84248 13.1411 8.70253 13.1851C8.56259 13.2292 8.41491 13.2431 8.26921 13.2259V13.2259Z" fill="#38BCEA"/>
</svg>
