<svg width="61" height="62" viewBox="0 0 61 62" fill="none" xmlns="http://www.w3.org/2000/svg">
<path d="M11.6282 61.9366C10.9654 61.9299 10.3153 61.7537 9.73971 61.4248C9.16417 61.0959 8.68231 60.6253 8.33997 60.0576C5.17984 55.0897 4.76703 51.289 4.29728 46.8904C4.16917 45.6804 4.02682 44.442 3.82753 43.1039C2.0746 40.4301 0.990716 37.3737 0.667394 34.1929C0.311523 30.4634 0.311523 28.015 0.311523 27.9153C0.311523 20.015 6.23322 13.5951 13.5072 13.5951C13.7828 13.5951 14.0471 13.7046 14.242 13.8994C14.4369 14.0943 14.5464 14.3587 14.5464 14.6343C14.5464 14.9098 14.4369 15.1741 14.242 15.369C14.0471 15.5639 13.7828 15.6734 13.5072 15.6734C7.37201 15.6734 2.3898 21.168 2.3898 27.9153C2.3898 27.9153 2.38981 30.3779 2.73144 33.9936C2.99477 36.8965 3.97287 39.689 5.57841 42.1217C5.6653 42.2435 5.71924 42.3857 5.73499 42.5345C5.96275 43.958 6.1051 45.3815 6.24745 46.6341C6.70296 50.9046 7.07306 54.3494 9.97697 58.9188C10.1709 59.2688 10.4779 59.5425 10.8477 59.6951C11.2176 59.8477 11.6283 59.8701 12.0126 59.7587C12.4519 59.6092 12.8295 59.3189 13.0869 58.9328C13.3443 58.5467 13.467 58.0864 13.436 57.6234V52.3423C13.3597 51.3527 13.4887 50.3579 13.8149 49.4205C14.1412 48.4831 14.6577 47.6232 15.332 46.8948C16.0064 46.1665 16.8239 45.5853 17.7335 45.1879C18.643 44.7905 19.6249 44.5853 20.6175 44.5853C21.6101 44.5853 22.592 44.7905 23.5015 45.1879C24.4111 45.5853 25.2287 46.1665 25.903 46.8948C26.5773 47.6232 27.0938 48.4831 27.4201 49.4205C27.7464 50.3579 27.8754 51.3527 27.799 52.3423V57.6234C27.768 58.0864 27.8907 58.5467 28.1481 58.9328C28.4055 59.3189 28.7832 59.6092 29.2225 59.7587C29.6068 59.8675 30.0166 59.8438 30.3858 59.6915C30.755 59.5391 31.0623 59.267 31.258 58.9188C32.7144 56.6894 33.7426 54.2082 34.2901 51.6021C34.345 51.3323 34.5047 51.0952 34.7343 50.9431C34.9638 50.7909 35.2444 50.7362 35.5143 50.7907C35.7852 50.8489 36.0224 51.0115 36.1742 51.2434C36.3261 51.4752 36.3805 51.7575 36.3257 52.0292C35.7292 54.8818 34.5991 57.5961 32.9947 60.0291C32.5617 60.7579 31.8991 61.3224 31.1108 61.6341C30.3226 61.9458 29.4531 61.9871 28.6388 61.7515C27.771 61.4687 27.0166 60.9152 26.4863 60.1723C25.956 59.4294 25.6777 58.5361 25.6922 57.6234V52.3423C25.768 51.6259 25.6922 50.9016 25.4699 50.2164C25.2476 49.5311 24.8837 48.9003 24.4018 48.3648C23.9199 47.8293 23.3308 47.4011 22.6727 47.108C22.0147 46.8148 21.3023 46.6634 20.5819 46.6634C19.8615 46.6634 19.1492 46.8148 18.4911 47.108C17.833 47.4011 17.2439 47.8293 16.7621 48.3648C16.2802 48.9003 15.9163 49.5311 15.694 50.2164C15.4716 50.9016 15.3959 51.6259 15.4716 52.3423V57.6234C15.4861 58.5361 15.2078 59.4294 14.6775 60.1723C14.1472 60.9152 13.3929 61.4687 12.525 61.7515C12.2338 61.8462 11.9331 61.9082 11.6282 61.9366Z" fill="#38BCEA"/>
<path d="M59.059 44.627C58.8797 44.6259 58.7036 44.5797 58.5468 44.4926C58.3901 44.4056 58.2578 44.2804 58.1622 44.1288L33.8349 3.45983C33.6413 3.14897 33.3354 2.92464 32.9808 2.83349C32.804 2.78435 32.6189 2.77289 32.4375 2.79987C32.256 2.82684 32.0822 2.89163 31.9274 2.99005C31.7698 3.08164 31.6329 3.20478 31.5251 3.35175C31.4173 3.49871 31.3411 3.66635 31.3011 3.84415C31.2528 4.02101 31.2418 4.20597 31.2688 4.3873C31.2957 4.56863 31.36 4.74239 31.4576 4.89756L52.6391 40.2996C52.7628 40.5346 52.7919 40.8081 52.7204 41.0638C52.6488 41.3196 52.482 41.5382 52.2543 41.6749C52.0266 41.8115 51.7552 41.8558 51.4958 41.7985C51.2365 41.7413 51.0088 41.587 50.8597 41.3672L29.6641 5.95092C29.1946 5.16362 29.0569 4.2222 29.2811 3.33341C29.5053 2.44463 30.0731 1.68114 30.8598 1.2107C31.2488 0.973532 31.6811 0.815928 32.1315 0.746963C32.5818 0.677999 33.0415 0.699068 33.4837 0.808954C33.9258 0.91884 34.3418 1.11534 34.7075 1.38711C35.0733 1.65888 35.3815 2.00052 35.6142 2.39222L59.9416 43.0612C60.0134 43.1775 60.0611 43.3071 60.0821 43.4422C60.1031 43.5773 60.0968 43.7152 60.0636 43.8479C60.0305 43.9805 59.9711 44.1052 59.889 44.2146C59.8069 44.3239 59.7038 44.4158 59.5857 44.4846C59.4257 44.5775 59.244 44.6266 59.059 44.627Z" fill="#38BCEA"/>
<path d="M35.8278 48.6697C35.6658 48.671 35.506 48.6327 35.3621 48.5583C35.2183 48.4839 35.0947 48.3755 35.0021 48.2426C34.892 48.0984 34.822 47.9276 34.7995 47.7475C34.777 47.5674 34.8027 47.3846 34.874 47.2177C37.9772 39.9152 30.0627 34.6056 29.721 34.4064C29.583 34.3191 29.4682 34.1997 29.3864 34.0584C29.3046 33.9171 29.2582 33.7581 29.2513 33.595C29.244 33.4304 29.2749 33.2664 29.3416 33.1157C29.4083 32.9651 29.5089 32.8319 29.6356 32.7267C31.7566 31.0327 31.7993 29.4527 31.5715 28.5559C23.9274 31.5594 16.9808 24.6413 16.6819 24.2854C16.549 24.1571 16.4533 23.9953 16.4048 23.8171C16.3563 23.6388 16.3569 23.4508 16.4065 23.2729C16.456 23.0949 16.5528 22.9337 16.6865 22.8062C16.8202 22.6788 16.9858 22.5898 17.1659 22.5488C21.8492 21.3673 23.7139 20.1573 24.4541 19.4028C19.3153 18.4633 16.2976 11.3602 16.1695 11.0328C16.0891 10.8454 16.0666 10.6382 16.1046 10.4379C16.1426 10.2376 16.2396 10.0532 16.383 9.90821C16.5191 9.76073 16.6971 9.65847 16.893 9.6152C17.089 9.57194 17.2935 9.58973 17.4791 9.6662C17.7495 9.75161 24.1552 12.0007 31.2157 6.64842C31.4341 6.4952 31.7025 6.43059 31.9667 6.46758C32.2309 6.50457 32.4712 6.64043 32.6392 6.84773C32.7958 7.06497 32.8625 7.33427 32.8253 7.59948C32.7882 7.8647 32.6501 8.10534 32.4399 8.27122C30.5702 9.77609 28.4174 10.8904 26.1092 11.5481C23.801 12.2059 21.3843 12.3937 19.0022 12.1004C20.2833 14.3068 22.7317 17.6093 25.8349 17.3815C26.0663 17.3677 26.2957 17.4316 26.4866 17.5632C26.6774 17.6947 26.8188 17.8863 26.8883 18.1075C26.9621 18.4135 26.9737 18.7312 26.9224 19.0417C26.871 19.3523 26.7578 19.6494 26.5893 19.9153C25.7068 21.4954 23.3438 22.8619 19.5431 24.0007C21.8776 25.78 26.7602 28.6128 31.5858 26.1786C31.8061 26.0622 32.0616 26.0312 32.3033 26.0917C32.545 26.1521 32.7558 26.2996 32.8954 26.506C33.558 27.5914 33.817 28.8755 33.6269 30.1328C33.4369 31.3902 32.81 32.5404 31.8563 33.3814C34.0627 35.2035 38.8598 39.9722 37.3367 46.1928C40.326 45.4526 46.5324 43.2035 48.7245 37.0256C48.8178 36.7675 49.0093 36.5569 49.2574 36.4395C49.5054 36.3222 49.7897 36.3077 50.0484 36.3992C50.3074 36.4955 50.5183 36.6898 50.6354 36.9401C50.7526 37.1904 50.7667 37.4767 50.6747 37.7373C47.2868 47.175 36.3402 48.5273 35.8705 48.5842L35.8278 48.6697Z" fill="#38BCEA"/>
<path d="M8.41161 25.8226C8.27581 25.8227 8.14136 25.7957 8.01607 25.7433C7.89079 25.6909 7.77715 25.6141 7.68179 25.5174C7.58643 25.4207 7.51125 25.3061 7.46059 25.1801C7.40993 25.0541 7.38481 24.9193 7.3867 24.7835V23.6163C7.36956 23.4706 7.38345 23.3229 7.42749 23.1829C7.47153 23.043 7.54471 22.9139 7.6422 22.8043C7.73969 22.6947 7.85928 22.607 7.99312 22.5469C8.12696 22.4868 8.272 22.4557 8.41871 22.4557C8.56542 22.4557 8.71046 22.4868 8.8443 22.5469C8.97814 22.607 9.09775 22.6947 9.19524 22.8043C9.29273 22.9139 9.36589 23.043 9.40993 23.1829C9.45397 23.3229 9.46789 23.4706 9.45074 23.6163V24.7835C9.45266 24.9205 9.42709 25.0565 9.37555 25.1834C9.324 25.3104 9.24753 25.4257 9.15065 25.5226C9.05377 25.6194 8.93847 25.6959 8.81153 25.7475C8.68459 25.799 8.5486 25.8246 8.41161 25.8226Z" fill="#38BCEA"/>
<path d="M8.41161 31.7017C8.27581 31.7017 8.14136 31.6747 8.01607 31.6223C7.89079 31.5699 7.77715 31.4931 7.68179 31.3965C7.58643 31.2998 7.51125 31.1851 7.46059 31.0591C7.40993 30.9331 7.38481 30.7983 7.3867 30.6625V29.4953C7.36956 29.3496 7.38345 29.2019 7.42749 29.062C7.47153 28.922 7.54471 28.793 7.6422 28.6833C7.73969 28.5737 7.85928 28.4859 7.99312 28.4259C8.12696 28.3658 8.272 28.3347 8.41871 28.3347C8.56542 28.3347 8.71046 28.3658 8.8443 28.4259C8.97814 28.4859 9.09775 28.5737 9.19524 28.6833C9.29273 28.793 9.36589 28.922 9.40993 29.062C9.45397 29.2019 9.46789 29.3496 9.45074 29.4953V30.6625C9.45266 30.7995 9.42709 30.9355 9.37555 31.0624C9.324 31.1894 9.24753 31.3047 9.15065 31.4016C9.05377 31.4985 8.93847 31.5749 8.81153 31.6265C8.68459 31.678 8.5486 31.7036 8.41161 31.7017Z" fill="#38BCEA"/>
<path d="M11.9413 28.1714H10.7741C10.6284 28.1885 10.4807 28.1746 10.3408 28.1306C10.2008 28.0865 10.0718 28.0134 9.96214 27.9159C9.85251 27.8184 9.76477 27.6988 9.70469 27.565C9.6446 27.4311 9.61353 27.2861 9.61353 27.1394C9.61353 26.9927 9.6446 26.8476 9.70469 26.7138C9.76477 26.5799 9.85251 26.4603 9.96214 26.3628C10.0718 26.2653 10.2008 26.1922 10.3408 26.1481C10.4807 26.1041 10.6284 26.0902 10.7741 26.1073H11.9413C12.0871 26.0902 12.2347 26.1041 12.3747 26.1481C12.5146 26.1922 12.6437 26.2653 12.7533 26.3628C12.8629 26.4603 12.9507 26.5799 13.0107 26.7138C13.0708 26.8476 13.1019 26.9927 13.1019 27.1394C13.1019 27.2861 13.0708 27.4311 13.0107 27.565C12.9507 27.6988 12.8629 27.8184 12.7533 27.9159C12.6437 28.0134 12.5146 28.0865 12.3747 28.1306C12.2347 28.1746 12.0871 28.1885 11.9413 28.1714Z" fill="#38BCEA"/>
<path d="M6.06248 28.1714H4.89524C4.74953 28.1885 4.60185 28.1746 4.46191 28.1306C4.32196 28.0865 4.19293 28.0134 4.0833 27.9159C3.97366 27.8184 3.88591 27.6988 3.82582 27.565C3.76573 27.4311 3.73468 27.2861 3.73468 27.1394C3.73468 26.9927 3.76573 26.8476 3.82582 26.7138C3.88591 26.5799 3.97366 26.4603 4.0833 26.3628C4.19293 26.2653 4.32196 26.1922 4.46191 26.1481C4.60185 26.1041 4.74953 26.0902 4.89524 26.1073H6.06248C6.20819 26.0902 6.35586 26.1041 6.49581 26.1481C6.63575 26.1922 6.76479 26.2653 6.87442 26.3628C6.98405 26.4603 7.07181 26.5799 7.1319 26.7138C7.19198 26.8476 7.22304 26.9927 7.22304 27.1394C7.22304 27.2861 7.19198 27.4311 7.1319 27.565C7.07181 27.6988 6.98405 27.8184 6.87442 27.9159C6.76479 28.0134 6.63575 28.0865 6.49581 28.1306C6.35586 28.1746 6.20819 28.1885 6.06248 28.1714Z" fill="#38BCEA"/>
</svg>
