<svg width="60" height="77" viewBox="0 0 60 77" fill="none" xmlns="http://www.w3.org/2000/svg">
<path d="M36.8345 10.123H36.502C33.6961 9.38146 31.0904 8.02478 28.8738 6.1514C28.6256 5.91939 28.4796 5.59826 28.4681 5.25867C28.4567 4.91907 28.5806 4.58887 28.8126 4.34062C29.0446 4.09237 29.3657 3.94642 29.7053 3.93494C30.0449 3.92345 30.3752 4.04737 30.6234 4.27938C32.5289 5.87363 34.7634 7.02673 37.1669 7.65608C37.4591 7.74225 37.7108 7.92999 37.8768 8.18548C38.0427 8.44096 38.1118 8.74735 38.0717 9.04933C38.0316 9.35131 37.8848 9.629 37.6579 9.83229C37.4311 10.0356 37.139 10.1511 36.8345 10.158V10.123Z" fill="#38BCEA"/>
<path d="M39.8785 45.6748H19.5657C16.5504 45.6603 13.6403 44.5647 11.3641 42.5871C9.08789 40.6094 7.59659 37.881 7.16108 34.8972L5.20154 21.1454C4.71354 17.9637 5.02621 14.7106 6.11131 11.6801C7.15074 8.54206 9.13013 5.79968 11.7811 3.82479C14.432 1.8499 17.6261 0.738071 20.9304 0.640137C24.0833 0.656321 27.1485 1.68012 29.6784 3.56198C32.2065 1.67681 35.2728 0.652634 38.4263 0.640137C41.7543 0.725322 44.9742 1.83918 47.6434 3.82858C50.3127 5.81797 52.3002 8.58526 53.3329 11.7501C54.418 14.7806 54.7307 18.0337 54.2427 21.2154L52.2832 34.9672C51.8324 37.9381 50.3345 40.6501 48.0598 42.6136C45.7851 44.5771 42.8834 45.6628 39.8785 45.6748V45.6748ZM20.9829 3.19453C18.1989 3.29686 15.5134 4.25095 13.2889 5.92795C11.0643 7.60496 9.40794 9.92414 8.54327 12.5724C7.6143 15.2086 7.35572 18.0345 7.79091 20.7955L9.73299 34.5473C10.0842 36.9218 11.2743 39.092 13.0877 40.6647C14.9011 42.2374 17.2179 43.1085 19.6182 43.1203H39.8785C42.2788 43.1085 44.5956 42.2374 46.409 40.6647C48.2224 39.092 49.4125 36.9218 49.7637 34.5473L51.7058 20.7955C52.141 18.0345 51.8824 15.2086 50.9535 12.5724C50.0878 9.92142 48.4287 7.60029 46.2007 5.92304C43.9727 4.24579 41.2833 3.29334 38.4963 3.19453C35.5849 3.21237 32.775 4.26687 30.5707 6.16886C30.3376 6.3563 30.0475 6.45847 29.7484 6.45847C29.4493 6.45847 29.1591 6.3563 28.9261 6.16886C26.7171 4.26297 23.9003 3.20822 20.9829 3.19453V3.19453Z" fill="#38BCEA"/>
<path d="M29.7482 76.1878C29.4612 76.1878 29.1825 76.0912 28.9572 75.9134C28.7318 75.7357 28.5728 75.4872 28.506 75.208C28.4318 74.8789 28.4891 74.5338 28.6655 74.2463C28.842 73.9587 29.1237 73.7514 29.4508 73.6684L30.588 73.406L19.5656 72.9861C19.2561 72.9748 18.9613 72.8514 18.736 72.639C18.5108 72.4266 18.3703 72.1396 18.3408 71.8313C18.3187 71.5252 18.4047 71.221 18.5837 70.9716C18.7627 70.7223 19.0235 70.5436 19.3206 70.4667L30.588 67.7373L19.5831 67.2824C19.2748 67.2675 18.982 67.1429 18.7575 66.9312C18.5329 66.7195 18.3913 66.4345 18.3583 66.1276C18.329 65.8201 18.4121 65.5125 18.5923 65.2615C18.7724 65.0106 19.0374 64.8335 19.3381 64.763L30.5705 62.1036L19.5656 61.6487C19.2671 61.6245 18.9866 61.4963 18.7731 61.2864C18.5596 61.0764 18.4267 60.7981 18.3975 60.5001C18.3683 60.2021 18.4448 59.9033 18.6135 59.6559C18.7822 59.4086 19.0325 59.2284 19.3206 59.1468L30.5705 56.4874L19.5656 56.0325C19.2567 56.0208 18.9626 55.8976 18.7377 55.6856C18.5128 55.4737 18.3724 55.1874 18.3425 54.8798C18.3126 54.5722 18.3953 54.2642 18.5751 54.0129C18.755 53.7616 19.0198 53.584 19.3206 53.5131L30.553 50.8537L19.5481 50.3988C19.2304 50.4036 18.9228 50.2882 18.6866 50.0758C18.4504 49.8634 18.3032 49.5696 18.2745 49.2533C18.2457 48.937 18.3375 48.6214 18.5315 48.3699C18.7255 48.1184 19.0073 47.9494 19.3206 47.8969L39.5809 43.243C39.7476 43.1945 39.9224 43.1806 40.0947 43.202C40.2669 43.2234 40.433 43.2796 40.5828 43.3674C40.7325 43.4551 40.8628 43.5725 40.9658 43.7122C41.0687 43.852 41.142 44.0113 41.1813 44.1803C41.2206 44.3494 41.225 44.5247 41.1943 44.6955C41.1636 44.8664 41.0983 45.0291 41.0026 45.1739C40.9069 45.3187 40.7826 45.4424 40.6374 45.5376C40.4923 45.6327 40.3292 45.6974 40.1583 45.7274L28.9259 48.3868L39.9309 48.8417C40.2387 48.8488 40.5333 48.9684 40.759 49.178C40.9846 49.3875 41.1257 49.6724 41.1556 49.9789C41.1849 50.2864 41.1018 50.5941 40.9217 50.845C40.7415 51.0959 40.4765 51.2731 40.1758 51.3436L28.9434 54.003L39.9483 54.4579C40.256 54.473 40.5478 54.5989 40.77 54.8122C40.9922 55.0255 41.1298 55.3119 41.1575 55.6187C41.1852 55.9255 41.1011 56.2319 40.9207 56.4815C40.7403 56.7312 40.4757 56.9073 40.1758 56.9773L28.9434 59.6367L39.9483 60.0741C40.2555 60.0924 40.5464 60.2181 40.7703 60.4292C40.9941 60.6402 41.1367 60.9233 41.1731 61.2288C41.2024 61.5363 41.1193 61.844 40.9391 62.0949C40.759 62.3458 40.494 62.5229 40.1933 62.5935L28.9434 65.2528L39.9483 65.7078C40.2572 65.7194 40.5513 65.8426 40.7762 66.0546C41.0011 66.2666 41.1415 66.5529 41.1714 66.8605C41.2013 67.1681 41.1187 67.476 40.9388 67.7274C40.759 67.9787 40.4941 68.1563 40.1933 68.2272L28.9609 70.8691L39.9659 71.3239C40.2722 71.3394 40.5628 71.4646 40.7844 71.6766C41.0061 71.8886 41.1441 72.1733 41.1731 72.4787C41.207 72.7844 41.1278 73.092 40.9505 73.3434C40.7733 73.5948 40.5101 73.7726 40.2108 73.8434L30.0631 76.1528C29.961 76.1828 29.8544 76.1947 29.7482 76.1878V76.1878Z" fill="#38BCEA"/>
<path d="M48.364 68.5771C48.158 68.5794 47.9546 68.5312 47.7716 68.4366C47.5886 68.3421 47.4315 68.2041 47.3142 68.0347C47.1292 67.7593 47.0586 67.4227 47.1174 67.0961C47.1762 66.7696 47.3597 66.4787 47.6292 66.2851L57.042 59.8291C57.181 59.7338 57.3374 59.6667 57.5023 59.6318C57.6673 59.5969 57.8375 59.5948 58.0032 59.6257C58.1689 59.6566 58.3269 59.7198 58.4682 59.8117C58.6095 59.9037 58.7313 60.0225 58.8266 60.1615C58.922 60.3006 58.989 60.4569 59.0239 60.6219C59.0588 60.7868 59.0609 60.957 59.03 61.1227C58.9991 61.2884 58.9359 61.4464 58.844 61.5877C58.752 61.729 58.6332 61.8508 58.4942 61.9461L49.0813 68.3846C48.8675 68.5204 48.6171 68.5876 48.364 68.5771V68.5771Z" fill="#38BCEA"/>
<path d="M48.4691 54.388C48.1978 54.3858 47.9343 54.2974 47.7166 54.1354C47.499 53.9734 47.3386 53.7463 47.2587 53.4871C47.1788 53.2278 47.1835 52.9498 47.2721 52.6934C47.3608 52.437 47.5288 52.2156 47.7518 52.0611L57.1646 45.605C57.3013 45.4912 57.4603 45.4071 57.6315 45.3583C57.8026 45.3094 57.982 45.2969 58.1582 45.3214C58.3345 45.346 58.5037 45.4071 58.6549 45.5008C58.8062 45.5946 58.9362 45.7189 59.0366 45.8658C59.137 46.0127 59.2055 46.179 59.2379 46.354C59.2703 46.529 59.2657 46.7088 59.2246 46.8819C59.1834 47.055 59.1065 47.2176 58.9988 47.3593C58.8911 47.501 58.7551 47.6185 58.5993 47.7045L49.204 54.1605C48.9887 54.3111 48.7318 54.3906 48.4691 54.388V54.388Z" fill="#38BCEA"/>
<path d="M11.15 68.5772C10.8931 68.5774 10.6425 68.4979 10.4327 68.3497L1.03734 61.8937C0.761344 61.7057 0.571299 61.4158 0.508964 61.0877C0.446629 60.7597 0.517102 60.4202 0.704918 60.1441C0.895866 59.8718 1.1855 59.6848 1.51223 59.6227C1.83895 59.5606 2.177 59.6284 2.45451 59.8117L11.8673 66.2677C12.1361 66.4614 12.3203 66.7508 12.3822 67.0762C12.444 67.4017 12.3787 67.7385 12.1998 68.0173C12.0813 68.1867 11.9244 68.3257 11.742 68.423C11.5595 68.5203 11.3567 68.5732 11.15 68.5772V68.5772Z" fill="#38BCEA"/>
<path d="M11.0452 54.3879C10.7879 54.3904 10.5366 54.3107 10.3278 54.1604L0.914987 47.7044C0.642695 47.5135 0.455625 47.2238 0.393547 46.8971C0.331469 46.5704 0.399274 46.2323 0.58256 45.9548C0.770562 45.6788 1.06045 45.4888 1.38853 45.4264C1.71661 45.3641 2.05603 45.4346 2.33216 45.6224L11.745 52.0784C11.968 52.2329 12.136 52.4545 12.2246 52.7109C12.3133 52.9673 12.318 53.2452 12.2381 53.5045C12.1582 53.7637 11.9977 53.9908 11.7801 54.1528C11.5625 54.3148 11.2989 54.4033 11.0276 54.4054L11.0452 54.3879Z" fill="#38BCEA"/>
</svg>
