<svg width="77" height="80" viewBox="0 0 77 80" fill="none" xmlns="http://www.w3.org/2000/svg">
<path d="M56.5644 28.1094C56.3363 28.1112 56.1119 28.0521 55.9142 27.9383C53.9025 26.7344 52.184 25.0978 50.8835 23.1472C50.8002 23.0057 50.7457 22.8491 50.7229 22.6865C50.7002 22.5238 50.7098 22.3583 50.7511 22.1994C50.7925 22.0405 50.8647 21.8912 50.9637 21.7603C51.0628 21.6293 51.1867 21.5191 51.3284 21.4361C51.4676 21.3474 51.6234 21.288 51.7863 21.2615C51.9492 21.235 52.1158 21.242 52.2759 21.282C52.4361 21.322 52.5863 21.3943 52.7176 21.4943C52.8489 21.5943 52.9584 21.7201 53.0395 21.8639C54.1369 23.4626 55.567 24.8051 57.2317 25.7994C57.5121 25.9727 57.7126 26.2499 57.7895 26.5704C57.8664 26.8909 57.8135 27.2288 57.6424 27.5105C57.5339 27.6987 57.3763 27.8539 57.1864 27.9594C56.9965 28.0649 56.7815 28.1167 56.5644 28.1094Z" fill="#38BCEA"/>
<path d="M49.0184 68.1496C48.3051 68.1422 47.6072 67.9411 46.9993 67.5678C46.2044 67.0307 45.6069 66.2484 45.298 65.3401C44.989 64.4319 44.9856 63.4475 45.2882 62.5371L46.7426 57.4038C47.1706 56.0261 47.0731 54.5386 46.4688 53.2286C46.2134 52.6596 45.8381 52.1525 45.3685 51.742C44.899 51.3314 44.3462 51.0272 43.7481 50.8502C43.1461 50.6851 42.5158 50.6501 41.8992 50.7474C41.2826 50.8448 40.6938 51.0723 40.1719 51.4149C38.9573 52.2133 38.0799 53.4319 37.7079 54.8371L36.2535 59.9704C36.0208 60.9034 35.4876 61.7339 34.7362 62.3338C33.9847 62.9337 33.0568 63.2697 32.0955 63.29C31.2207 63.2871 30.3723 62.9903 29.6864 62.4472C29.0006 61.9042 28.5172 61.1464 28.3139 60.2955C24.3783 46.2302 29.5801 27.9726 29.8026 27.2026C32.027 19.5026 39.4361 14.8655 46.3319 16.9359C48.733 17.633 50.8528 19.0701 52.3893 21.0426C54.7437 20.194 57.3048 20.1043 59.7129 20.7859C61.4008 21.2895 62.9613 22.1486 64.2894 23.3056C65.6176 24.4626 66.6826 25.8906 67.4129 27.4935C68.9847 30.9006 69.2585 34.7643 68.1829 38.3591C67.9604 39.1291 62.656 57.3524 51.8417 67.1571C51.0598 67.8328 50.0511 68.1873 49.0184 68.1496ZM42.5504 48.2322C43.1696 48.2322 43.7859 48.3185 44.3813 48.4888C45.3196 48.7685 46.1871 49.2461 46.925 49.8897C47.663 50.5332 48.2543 51.3275 48.659 52.2191C49.5339 54.0698 49.6924 56.1789 49.1039 58.1395L47.6324 63.2729C47.4836 63.6671 47.4701 64.0995 47.594 64.5022C47.7179 64.9049 47.9722 65.255 48.3168 65.4973C48.593 65.6441 48.9095 65.6967 49.2183 65.6473C49.5271 65.5979 49.8113 65.4491 50.0279 65.2235C60.2946 55.8809 65.5991 37.8457 65.6504 37.5891C66.5569 34.579 66.3318 31.3415 65.0173 28.4859C64.4412 27.2005 63.594 26.0548 62.5337 25.1274C61.4734 24.2 60.2251 23.5128 58.8744 23.113C56.6997 22.5007 54.3785 22.6764 52.3208 23.6092C52.0522 23.7241 51.7522 23.7426 51.4715 23.6615C51.1908 23.5804 50.9468 23.4048 50.7808 23.1644C49.5718 21.2739 47.7365 19.8687 45.5962 19.1946C40.0179 17.5861 33.9948 21.4704 32.1468 27.8528C32.1468 28.0239 27.0135 46.196 30.6581 59.5769C30.7203 59.902 30.8915 60.1962 31.1435 60.4109C31.3955 60.6256 31.7132 60.7479 32.0441 60.7575C32.4553 60.7218 32.8439 60.5543 33.1522 60.2799C33.4606 60.0055 33.672 59.6389 33.7552 59.2346L35.2097 54.1013C35.7596 52.1272 37.0136 50.4228 38.7346 49.3102C39.8943 48.589 41.2362 48.215 42.6017 48.2322H42.5504Z" fill="#38BCEA"/>
<path d="M41.0789 79.2717C37.1788 79.3372 33.3419 78.2822 30.0237 76.2318C26.7055 74.1814 24.0454 71.2218 22.3593 67.7045C21.5905 65.8956 20.3129 64.3488 18.6817 63.2522C17.0505 62.1556 15.1359 61.5564 13.1706 61.5274H6.68546C6.51032 61.548 6.3328 61.5313 6.16458 61.4783C5.99636 61.4254 5.84125 61.3375 5.70946 61.2203C5.57768 61.1031 5.47221 60.9593 5.39999 60.7984C5.32776 60.6375 5.29041 60.4632 5.29041 60.2868C5.29041 60.1105 5.32776 59.9361 5.39999 59.7752C5.47221 59.6144 5.57768 59.4706 5.70946 59.3534C5.84125 59.2362 5.99636 59.1483 6.16458 59.0953C6.3328 59.0424 6.51032 59.0257 6.68546 59.0463H13.1706C15.6157 59.0699 18.0011 59.8039 20.0366 61.1589C22.0721 62.5138 23.6697 64.4313 24.6351 66.6778C26.1778 69.7133 28.5307 72.2625 31.433 74.043C34.3353 75.8236 37.6739 76.7661 41.0789 76.7661C44.4839 76.7661 47.8224 75.8236 50.7248 74.043C53.6271 72.2625 55.9799 69.7133 57.5227 66.6778C58.4862 64.43 60.0835 62.5113 62.1193 61.1561C64.1552 59.8009 66.5416 59.0678 68.9871 59.0463H75.4723C75.6474 59.0257 75.825 59.0424 75.9932 59.0953C76.1614 59.1483 76.3165 59.2362 76.4483 59.3534C76.5801 59.4706 76.6855 59.6144 76.7578 59.7752C76.83 59.9361 76.8673 60.1105 76.8673 60.2868C76.8673 60.4632 76.83 60.6375 76.7578 60.7984C76.6855 60.9593 76.5801 61.1031 76.4483 61.2203C76.3165 61.3375 76.1614 61.4254 75.9932 61.4783C75.825 61.5313 75.6474 61.548 75.4723 61.5274H68.9871C67.0224 61.568 65.1106 62.1716 63.4788 63.2666C61.847 64.3615 60.5637 65.9018 59.7813 67.7045C58.0999 71.2218 55.4432 74.1819 52.1276 76.2326C48.8119 78.2833 44.9769 79.3381 41.0789 79.2717Z" fill="#38BCEA"/>
<path d="M11.5107 36.2543C10.2302 36.2526 8.98947 35.809 7.99811 34.9985C7.00675 34.1879 6.32548 33.0601 6.06937 31.8054L0.0975988 2.22024C0.0577388 2.05562 0.0527385 1.88448 0.0829252 1.71782C0.113112 1.55115 0.177806 1.39264 0.272872 1.25246C0.367938 1.11227 0.491286 0.993519 0.634959 0.903815C0.778632 0.814111 0.939463 0.755441 1.10715 0.731571C1.26797 0.696713 1.43415 0.694427 1.59587 0.724848C1.75759 0.75527 1.9116 0.817782 2.04876 0.908694C2.18593 0.999607 2.30349 1.11708 2.39451 1.25417C2.48553 1.39127 2.54816 1.54521 2.57871 1.70691L8.55051 31.275C8.71156 32.0679 9.17984 32.765 9.85311 33.2138C10.5264 33.6627 11.3499 33.8269 12.1438 33.6705C12.9414 33.5035 13.6417 33.0304 14.0945 32.353C14.5381 31.6767 14.6979 30.8531 14.5394 30.0601L10.7749 11.6656C10.7335 11.3505 10.8136 11.0315 10.9991 10.7734C11.1846 10.5154 11.4615 10.3378 11.7733 10.2767C12.0852 10.2156 12.4086 10.2757 12.6777 10.4448C12.9469 10.6138 13.1414 10.879 13.2218 11.1865L16.9521 29.6152C17.0964 30.3282 17.0982 31.0627 16.9572 31.7763C16.8162 32.49 16.5353 33.1687 16.1307 33.7732C15.3145 34.999 14.048 35.8536 12.6058 36.1516C12.2448 36.2197 11.8782 36.254 11.5107 36.2543Z" fill="#38BCEA"/>
<path d="M25.1656 59.7137C25.0125 59.738 24.8566 59.738 24.7036 59.7137L11.1515 54.221C10.9923 54.1565 10.8482 54.0597 10.7281 53.9369C10.6079 53.8141 10.5144 53.6678 10.4534 53.5072C10.3924 53.3466 10.3651 53.1752 10.3734 53.0036C10.3816 52.832 10.4252 52.6639 10.5013 52.5099L13.3931 46.367L11.1344 35.2277C11.0688 34.9032 11.1347 34.566 11.3176 34.2901C11.5005 34.0141 11.7854 33.8221 12.1097 33.7561C12.2706 33.7212 12.4368 33.719 12.5985 33.7494C12.7602 33.7798 12.9142 33.8423 13.0514 33.9332C13.1885 34.0241 13.3061 34.1416 13.3971 34.2787C13.4881 34.4158 13.5508 34.5697 13.5813 34.7314L15.9256 46.2644C15.9791 46.5309 15.943 46.8076 15.8229 47.0515L13.3247 52.373L25.6276 57.3695C25.7913 57.4289 25.9407 57.5219 26.0663 57.6425C26.192 57.7631 26.291 57.9086 26.3571 58.0698C26.4231 58.2309 26.4548 58.4041 26.45 58.5781C26.4452 58.7522 26.404 58.9234 26.3291 59.0806C26.2125 59.2833 26.0421 59.4497 25.8367 59.5614C25.6314 59.6732 25.3991 59.7259 25.1656 59.7137Z" fill="#38BCEA"/>
<path d="M39.6752 34.1838C39.4241 34.1868 39.1782 34.113 38.9702 33.9724C38.7623 33.8317 38.6023 33.6309 38.5116 33.3967L37.1256 29.8205C37.0222 29.5388 37.0222 29.2295 37.1256 28.9478L38.3576 25.5256L35.791 19.9645C35.7044 19.8142 35.6501 19.6475 35.6315 19.475C35.6129 19.3025 35.6304 19.1281 35.6829 18.9628C35.7354 18.7974 35.8218 18.6449 35.9366 18.5148C36.0513 18.3847 36.1919 18.2799 36.3494 18.2071C36.5068 18.1344 36.6777 18.0952 36.8512 18.0921C37.0246 18.089 37.1968 18.1221 37.3568 18.1892C37.5167 18.2564 37.6609 18.3561 37.7802 18.482C37.8995 18.6079 37.9913 18.7574 38.0496 18.9207L40.8388 24.9267C40.9579 25.2291 40.9579 25.5654 40.8388 25.8678L39.5897 29.3927L40.8217 32.4556C40.9359 32.7648 40.9267 33.1061 40.7961 33.4087C40.6655 33.7114 40.4234 33.9522 40.1201 34.0812C39.978 34.1383 39.8279 34.173 39.6752 34.1838Z" fill="#38BCEA"/>
<path d="M42.7219 27.6816C42.597 27.6983 42.4704 27.6983 42.3455 27.6816L39.2997 26.7233C38.9837 26.6211 38.7205 26.3988 38.5668 26.1043C38.4132 25.8099 38.3814 25.4668 38.4783 25.1491C38.5268 24.9916 38.6064 24.8453 38.7124 24.7191C38.8184 24.5929 38.9486 24.4892 39.0954 24.4142C39.2422 24.3392 39.4026 24.2944 39.567 24.2825C39.7314 24.2706 39.8965 24.2918 40.0525 24.3449L43.0983 25.3031C43.3753 25.3985 43.6099 25.5882 43.7612 25.839C43.9125 26.0899 43.9708 26.3859 43.926 26.6754C43.8811 26.9649 43.736 27.2294 43.5159 27.4227C43.2958 27.616 43.0148 27.7258 42.7219 27.7329V27.6816Z" fill="#38BCEA"/>
</svg>
