<svg width="59" height="61" viewBox="0 0 59 61" fill="none" xmlns="http://www.w3.org/2000/svg">
<path d="M29.7861 9.92705C29.6108 9.97138 29.4249 9.98877 29.2466 9.95916V9.95916C26.7016 9.30611 24.34 8.07903 22.3427 6.37198C22.1617 6.17897 22.0612 5.9242 22.0616 5.65962C22.062 5.39505 22.1633 5.14059 22.3449 4.94813C22.5264 4.75568 22.7745 4.63973 23.0386 4.62393C23.3027 4.60812 23.5629 4.69366 23.7662 4.86308C25.535 6.31283 27.6 7.35748 29.816 7.92357C29.9473 7.95819 30.0705 8.01859 30.1784 8.10125C30.2862 8.18392 30.3765 8.2872 30.4441 8.40509C30.5116 8.52298 30.5551 8.65312 30.5719 8.78796C30.5887 8.92279 30.5785 9.05961 30.5419 9.19047C30.4794 9.41345 30.345 9.60958 30.1598 9.74854C30.0475 9.83272 29.9204 9.89307 29.7861 9.92705Z" fill="#38BCEA"/>
<path d="M38.8697 60.3208C38.665 60.3631 38.4474 60.379 38.2428 60.3364V60.3364C38.0312 60.2743 37.8457 60.1447 37.7147 59.9674C37.5836 59.7901 37.5141 59.5747 37.5168 59.3542C37.5168 59.2688 37.3175 50.7137 28.9759 40.4931C28.8023 40.2817 28.7197 40.0099 28.7464 39.7376C28.7731 39.4653 28.9068 39.2148 29.1183 39.0411C29.3297 38.8675 29.6014 38.7849 29.8737 38.8116C30.146 38.8383 30.3965 38.9721 30.5702 39.1835C32.1855 41.0415 33.6179 43.0395 34.8529 45.149C37.1133 49.01 43.0656 49.6018 43.7894 45.1867C44.5905 40.2991 43.6128 36.7382 42.8833 34.8846C42.3948 33.6611 42.2377 32.3305 42.4278 31.0269C42.6129 29.8169 42.7837 28.5643 42.9261 27.3258C42.9407 27.1893 42.9823 27.0571 43.0484 26.9367C43.1145 26.8163 43.2038 26.7103 43.3111 26.6246C43.4184 26.539 43.5416 26.4755 43.6737 26.4377C43.8057 26.4 43.9439 26.3888 44.0803 26.4048C44.2166 26.4208 44.3485 26.4636 44.4682 26.5309C44.5879 26.5981 44.6931 26.6884 44.7777 26.7966C44.8623 26.9047 44.9246 27.0286 44.9611 27.161C44.9976 27.2933 45.0074 27.4316 44.9901 27.5678C44.8478 28.8347 44.6769 30.1016 44.4777 31.3401C44.335 32.2792 44.4531 33.2394 44.8193 34.1159C46.2428 37.6461 48.5346 47.2262 39.467 59.9521C39.3599 60.0878 39.2202 60.1942 39.0609 60.2614C38.999 60.2875 38.935 60.3074 38.8697 60.3208Z" fill="#38BCEA"/>
<path d="M7.55253 60.3364C7.38734 60.336 7.22469 60.2957 7.07846 60.2188C6.93223 60.142 6.80673 60.031 6.71266 59.8952C-2.36916 47.1692 -0.0773494 37.5892 1.34613 34.0589C1.70054 33.1793 1.81357 32.221 1.67354 31.2831C0.982842 26.8307 0.597595 22.3362 0.520511 17.8312C0.534746 8.84903 7.04007 1.56079 15.0685 1.56079C16.6867 1.56884 18.2792 1.86982 19.7724 2.43892C21.8539 3.23224 24.2546 3.23224 26.3361 2.43892C27.8293 1.86982 29.4218 1.56884 31.04 1.56079C34.4358 1.59271 37.6983 2.88655 40.193 5.19067C40.294 5.28414 40.3755 5.39658 40.433 5.52156C40.4905 5.64654 40.5228 5.78162 40.5281 5.91909C40.5334 6.05656 40.5115 6.19373 40.4638 6.32276C40.4161 6.45179 40.3434 6.57015 40.25 6.6711C40.1565 6.77204 40.044 6.85359 39.9191 6.91108C39.7941 6.96857 39.659 7.00089 39.5215 7.00617C39.3841 7.01146 39.2469 6.98962 39.1179 6.9419C38.9888 6.89417 38.8705 6.82151 38.7695 6.72804C36.7487 4.80911 34.0867 3.70997 31.3008 3.6442C28.5148 3.57843 25.8039 4.55073 23.6948 6.37217C23.5111 6.53142 23.2761 6.61908 23.0329 6.61908C22.7898 6.61908 22.5547 6.53142 22.371 6.37217C20.3305 4.6271 17.7391 3.6591 15.0543 3.63908C8.17885 3.63908 2.5988 10.0163 2.5988 17.8739C2.67147 22.2741 3.04721 26.6641 3.72335 31.0127C3.92044 32.3161 3.7631 33.6486 3.26784 34.8703C2.23252 37.4709 0.674301 43.7106 4.60841 52.2957C5.31597 53.8397 7.55314 53.5047 8.13615 51.9094V51.9094C8.17809 51.7752 8.24682 51.651 8.33817 51.5441C8.42952 51.4373 8.54161 51.3501 8.66763 51.2878C8.79365 51.2256 8.931 51.1895 9.07136 51.1819C9.21172 51.1742 9.35218 51.1951 9.48423 51.2433C9.61628 51.2915 9.73718 51.366 9.83961 51.4622C9.94204 51.5585 10.0239 51.6746 10.0802 51.8034C10.1365 51.9322 10.166 52.0711 10.1671 52.2116C10.1681 52.3522 10.1407 52.4915 10.0863 52.6212C9.24784 54.772 8.73914 57.0372 8.57744 59.34C8.57561 59.5594 8.50439 59.7726 8.37398 59.949C8.24357 60.1255 8.06066 60.2561 7.85146 60.3222C7.75356 60.3454 7.65219 60.3503 7.55253 60.3364Z" fill="#38BCEA"/>
<path d="M-nan -nanL23.0543 60.3364C22.8909 60.3359 22.73 60.2968 22.5845 60.2225C20.0231 58.6218 17.9194 56.3856 16.4778 53.7314C16.3404 53.4944 16.3007 53.2133 16.3671 52.9475C16.4336 52.6818 16.6009 52.4523 16.8337 52.3079C16.95 52.2361 17.0796 52.1883 17.2147 52.1674C17.3498 52.1464 17.4878 52.1527 17.6204 52.1859C17.753 52.219 17.8777 52.2784 17.9871 52.3605C18.0964 52.4425 18.1883 52.5457 18.2571 52.6638C18.8582 53.7193 19.5658 54.7064 20.3668 55.6108C21.8091 57.239 24.2925 57.2299 25.7079 55.5783C27.6388 53.3252 30.0347 49.489 31.5098 43.3115C31.5839 43.0562 31.7531 42.8391 31.9825 42.7047C32.2118 42.5704 32.484 42.5291 32.7429 42.5892C33.0018 42.6494 33.2278 42.8065 33.3744 43.0282C33.5211 43.25 33.5771 43.5194 33.5311 43.7813C30.4849 56.5926 23.8087 60.0801 23.5667 60.2225C23.4071 60.2998 23.2316 60.3388 23.0543 60.3364L-nan -nanL-nan -nanZ" fill="#38BCEA"/>
<path d="M-nan -nanL14.1576 51.4681C13.7216 51.4697 13.2895 51.3851 12.8864 51.219C12.4833 51.0528 12.117 50.8085 11.8088 50.5001L7.7092 46.4289C7.08942 45.8072 6.74139 44.9652 6.74139 44.0873C6.74139 43.2094 7.08942 42.3674 7.7092 41.7457L12.8764 36.5784C13.5006 35.9578 14.345 35.6094 15.2252 35.6094C16.1054 35.6094 16.9498 35.9578 17.5739 36.5784L21.6309 40.6496C22.2515 41.2737 22.5999 42.1181 22.5999 42.9983C22.5999 43.8785 22.2515 44.7229 21.6309 45.3471L16.4779 50.5001C15.8623 51.116 15.0284 51.4639 14.1576 51.4681L-nan -nanL-nan -nanZM15.2537 37.6887C15.0902 37.6861 14.928 37.7163 14.7764 37.7774C14.6248 37.8385 14.487 37.9294 14.3711 38.0446L9.21809 43.2118C9.09966 43.3248 9.00539 43.4607 8.94098 43.6112C8.87657 43.7616 8.84335 43.9236 8.84335 44.0873C8.84335 44.251 8.87657 44.413 8.94098 44.5634C9.00539 44.7139 9.09966 44.8497 9.21809 44.9627L13.275 49.0339C13.5097 49.2669 13.8269 49.3976 14.1576 49.3976C14.4882 49.3976 14.8055 49.2669 15.0401 49.0339L20.1932 43.8809C20.4261 43.6462 20.5569 43.329 20.5569 42.9983C20.5569 42.6677 20.4261 42.3504 20.1932 42.1158L16.1362 38.0446C16.0155 37.9279 15.8728 37.8363 15.7164 37.7752C15.56 37.7141 15.3931 37.6847 15.2252 37.6887H15.2537Z" fill="#38BCEA"/>
<path d="M-nan -nanL16.6771 49.6746C16.4874 49.676 16.3007 49.6269 16.1362 49.5322L7.25368 44.2369C7.01584 44.0972 6.84323 43.8687 6.77382 43.6018C6.70441 43.3348 6.74389 43.0512 6.88357 42.8134C7.02326 42.5755 7.25171 42.4029 7.51866 42.3335C7.78562 42.2641 8.06921 42.3036 8.30706 42.4433L17.2038 47.7529C17.3219 47.8218 17.4251 47.9136 17.5071 48.0229C17.5892 48.1323 17.6486 48.257 17.6818 48.3896C17.7149 48.5223 17.7212 48.6602 17.7002 48.7953C17.6793 48.9304 17.6315 49.06 17.5597 49.1764C17.4695 49.3298 17.3404 49.4566 17.1854 49.5441C17.0304 49.6316 16.8551 49.6766 16.6771 49.6746L-nan -nanL-nan -nanZ" fill="#38BCEA"/>
<path d="M19.0257 47.5392C19.0257 47.5314 19.0195 47.525 19.0116 47.5247C18.83 47.519 18.6531 47.4652 18.4991 47.3685L9.68181 42.1221C9.46776 41.9947 9.24399 41.8629 9.11923 41.6473C9.0586 41.5425 9.01626 41.4271 8.99505 41.306C8.95211 41.0607 8.99869 40.8081 9.12631 40.5943C9.25393 40.3804 9.45409 40.2195 9.69037 40.1409C9.80822 40.1016 9.93115 40.0841 10.0533 40.0882C10.2999 40.0965 10.52 40.2291 10.7319 40.3555L19.5524 45.6176C19.7495 45.733 19.9031 45.91 19.9895 46.1215C20.0758 46.3329 20.0901 46.5668 20.0302 46.7872C19.9702 47.0076 19.8394 47.202 19.6578 47.3406C19.4801 47.4762 19.2634 47.5508 19.0401 47.5535C19.0322 47.5536 19.0257 47.5471 19.0257 47.5392V47.5392Z" fill="#38BCEA"/>
<path d="M-nan -nanL21.1611 45.2188C20.9713 45.2203 20.7846 45.1711 20.6202 45.0765L11.6949 39.7526C11.4956 39.5982 11.3593 39.3765 11.3113 39.129C11.2633 38.8815 11.307 38.6249 11.4341 38.4072C11.5613 38.1895 11.7632 38.0254 12.0024 37.9456C12.2416 37.8657 12.5016 37.8756 12.7341 37.9733L21.6593 43.2971C21.7774 43.366 21.8806 43.4578 21.9626 43.5672C22.0447 43.6765 22.1041 43.8012 22.1372 43.9338C22.1704 44.0665 22.1767 44.2044 22.1557 44.3395C22.1348 44.4747 22.087 44.6042 22.0152 44.7206C21.9274 44.8698 21.8028 44.994 21.6532 45.0813C21.5037 45.1685 21.3342 45.2159 21.1611 45.2188L-nan -nanL-nan -nanZ" fill="#38BCEA"/>
<path d="M-nan -nanL18.8693 40.3932C18.5915 40.3878 18.3265 40.2756 18.1291 40.0801C17.9511 39.8858 17.8523 39.6319 17.8523 39.3683C17.8523 39.1048 17.9511 38.8509 18.1291 38.6566L20.5298 36.2559C20.8262 35.9595 21.1631 35.637 21.581 35.6676C21.5992 35.6689 21.6173 35.6707 21.6354 35.673C21.8642 35.7019 22.0769 35.8061 22.24 35.9692C22.4031 36.1323 22.5073 36.345 22.5362 36.5738C22.5385 36.5919 22.5403 36.61 22.5416 36.6281C22.5722 37.0461 22.2496 37.383 21.9533 37.6793L19.5526 40.0801C19.3727 40.2672 19.1285 40.3791 18.8693 40.3932L-nan -nanL-nan -nanZ" fill="#38BCEA"/>
<path d="M24.3354 40.0801C24.0619 40.0739 23.8016 39.9616 23.6094 39.7669L18.428 34.6139C18.2468 34.4212 18.1459 34.1666 18.1459 33.9021C18.1459 33.6376 18.2468 33.3831 18.428 33.1904L28.7625 21.2758C32.1779 17.3162 35.9052 13.6366 39.9083 10.2723L48.2357 3.29723C48.4388 3.12859 48.6977 3.04233 48.9613 3.05551C49.2249 3.06869 49.474 3.18036 49.6592 3.3684L54.8122 8.52141C54.9934 8.71412 55.0942 8.96866 55.0942 9.23315C55.0942 9.49765 54.9934 9.75219 54.8122 9.9449L47.8514 18.2865C44.5162 22.3056 40.8652 26.0518 36.9333 29.4893L25.0329 39.8238C24.8393 39.9911 24.5913 40.0822 24.3354 40.0801ZM22.3519 31.8095C21.3676 32.949 21.4299 34.655 22.4947 35.7197V35.7197C23.5631 36.7881 25.2763 36.8466 26.4151 35.8536L35.5098 27.9235C39.3694 24.5621 42.9582 20.902 46.2428 16.9769L50.8741 11.4442C51.8543 10.2733 51.7779 8.54764 50.6982 7.46786V7.46786C49.6185 6.38823 47.8932 6.31172 46.7222 7.29155L41.2037 11.9093C37.2717 15.1914 33.6109 18.7855 30.2571 22.6566L22.3519 31.8095Z" fill="#38BCEA"/>
<path d="M-nan -nanL55.0259 10.9984C54.7937 10.9996 54.5635 10.9549 54.3485 10.867C54.1336 10.7791 53.9381 10.6496 53.7733 10.4859L47.7377 4.45036C47.5724 4.28629 47.4413 4.09114 47.3518 3.87615C47.2622 3.66115 47.2162 3.43058 47.2162 3.1977C47.2162 2.96481 47.2622 2.73424 47.3518 2.51924C47.4413 2.30425 47.5724 2.1091 47.7377 1.94503L49.1612 0.521546C49.3253 0.356276 49.5204 0.225106 49.7354 0.135594C49.9504 0.0460832 50.181 0 50.4139 0C50.6467 0 50.8773 0.0460832 51.0923 0.135594C51.3073 0.225106 51.5024 0.356276 51.6665 0.521546L57.7021 6.55712C58.0315 6.88793 58.2165 7.33579 58.2165 7.80267C58.2165 8.26954 58.0315 8.7174 57.7021 9.04821L56.1932 10.5571C55.8708 10.8414 55.4558 10.9983 55.0259 10.9984L-nan -nanL-nan -nanZM49.9714 2.6453C49.6686 2.92394 49.6569 3.39811 49.9457 3.69131L54.4942 8.30907C54.7872 8.60656 55.2665 8.60837 55.5618 8.3131V8.3131C55.8555 8.0194 55.8555 7.54322 55.5618 7.24952L50.9785 2.66627C50.7027 2.39046 50.2585 2.38121 49.9714 2.6453V2.6453Z" fill="#38BCEA"/>
</svg>
