<svg width="60" height="61" viewBox="0 0 60 61" fill="none" xmlns="http://www.w3.org/2000/svg">
<path d="M30.6571 10.3995C30.4818 10.4438 30.2959 10.4612 30.1176 10.4316C27.5727 9.77852 25.211 8.55144 23.2137 6.84439C23.0327 6.65138 22.9322 6.39661 22.9326 6.13204C22.933 5.86746 23.0343 5.613 23.2159 5.42055C23.3975 5.22809 23.6456 5.11214 23.9097 5.09634C24.1738 5.08054 24.434 5.16607 24.6372 5.3355C26.4061 6.78524 28.4711 7.82989 30.687 8.39599C30.8184 8.4306 30.9416 8.491 31.0494 8.57367C31.1573 8.65633 31.2476 8.75961 31.3151 8.8775C31.3827 8.99539 31.4261 9.12554 31.4429 9.26037C31.4597 9.3952 31.4496 9.53203 31.413 9.66289C31.3504 9.88586 31.2161 10.082 31.0308 10.2209C30.9186 10.3051 30.7914 10.3655 30.6571 10.3995Z" fill="white"/>
<path d="M39.7406 60.7931C39.5359 60.8354 39.3183 60.8513 39.1136 60.8087C38.9021 60.7466 38.7166 60.617 38.5855 60.4397C38.4544 60.2624 38.385 60.047 38.3877 59.8265C38.3877 59.7411 38.1884 51.186 29.8468 40.9654C29.6731 40.7539 29.5905 40.4822 29.6172 40.2099C29.6439 39.9376 29.7777 39.6871 29.9891 39.5134C30.2005 39.3397 30.4723 39.2572 30.7446 39.2839C31.0169 39.3106 31.2674 39.4443 31.4411 39.6558C33.0564 41.5138 34.4887 43.5118 35.7237 45.6213C37.9841 49.4823 43.9365 50.0741 44.6602 45.659C45.4614 40.7713 44.4836 37.2105 43.7542 35.3568C43.2657 34.1334 43.1085 32.8028 43.2987 31.4992C43.4837 30.2892 43.6546 29.0366 43.7969 27.7981C43.8116 27.6616 43.8532 27.5294 43.9192 27.409C43.9853 27.2886 44.0746 27.1826 44.1819 27.0969C44.2893 27.0113 44.4125 26.9477 44.5445 26.91C44.6765 26.8723 44.8147 26.8611 44.9511 26.8771C45.0875 26.8931 45.2193 26.9359 45.3391 27.0032C45.4588 27.0704 45.564 27.1607 45.6486 27.2689C45.7332 27.377 45.7955 27.5009 45.832 27.6332C45.8684 27.7656 45.8783 27.9039 45.861 28.0401C45.7186 29.307 45.5478 30.5739 45.3485 31.8124C45.2058 32.7515 45.324 33.7117 45.6901 34.5882C47.1136 38.1184 49.4054 47.6985 40.3378 60.4244C40.2307 60.5601 40.091 60.6665 39.9317 60.7337C39.8699 60.7598 39.8058 60.7797 39.7406 60.7931Z" fill="white"/>
<path d="M8.42362 60.8087C8.25843 60.8083 8.09579 60.768 7.94955 60.6911C7.80332 60.6143 7.67782 60.5032 7.58376 60.3675C-1.49807 47.6415 0.793744 38.0615 2.21723 34.5312C2.57163 33.6516 2.68467 32.6933 2.54463 31.7554C1.85394 27.303 1.46869 22.8085 1.3916 18.3035C1.40584 9.32132 7.91116 2.03308 15.9396 2.03308C17.5578 2.04113 19.1503 2.34211 20.6435 2.91121C22.725 3.70453 25.1257 3.70453 27.2072 2.91121C28.7004 2.34211 30.2929 2.04113 31.9111 2.03308C35.3069 2.065 38.5694 3.35884 41.0641 5.66296C41.165 5.75643 41.2466 5.86887 41.3041 5.99385C41.3616 6.11883 41.3939 6.25391 41.3992 6.39138C41.4045 6.52885 41.3826 6.66602 41.3349 6.79505C41.2872 6.92408 41.2145 7.04244 41.121 7.14339C41.0276 7.24433 40.9151 7.32588 40.7902 7.38337C40.6652 7.44086 40.5301 7.47318 40.3926 7.47846C40.2551 7.48375 40.118 7.46191 39.989 7.41419C39.8599 7.36646 39.7416 7.2938 39.6406 7.20033C37.6198 5.2814 34.9578 4.18226 32.1719 4.11649C29.3859 4.05072 26.675 5.02302 24.5659 6.84446C24.3822 7.00371 24.1472 7.09137 23.904 7.09137C23.6608 7.09137 23.4258 7.00371 23.2421 6.84446C21.2016 5.09939 18.6102 4.13139 15.9254 4.11137C9.04995 4.11137 3.46989 10.4886 3.46989 18.3462C3.54256 22.7464 3.9183 27.1364 4.59444 31.485C4.79153 32.7884 4.63419 34.1209 4.13893 35.3426C3.10362 37.9432 1.54539 44.1829 5.47951 52.768C6.18707 54.312 8.42423 53.977 9.00724 52.3817C9.04918 52.2475 9.11791 52.1233 9.20926 52.0164C9.30062 51.9096 9.4127 51.8224 9.53872 51.7601C9.66475 51.6979 9.80209 51.6618 9.94246 51.6541C10.0828 51.6465 10.2233 51.6674 10.3553 51.7156C10.4874 51.7638 10.6083 51.8383 10.7107 51.9345C10.8131 52.0308 10.895 52.1468 10.9513 52.2757C11.0075 52.4045 11.0371 52.5434 11.0382 52.6839C11.0392 52.8245 11.0118 52.9638 10.9574 53.0934C10.1189 55.2443 9.61023 57.5095 9.44853 59.8123C9.4467 60.0317 9.37548 60.2449 9.24507 60.4213C9.11466 60.5978 8.93175 60.7284 8.72255 60.7945C8.62465 60.8177 8.52328 60.8226 8.42362 60.8087Z" fill="white"/>
<path d="M-nan -nanL23.9252 60.8087C23.7618 60.8081 23.6009 60.7691 23.4554 60.6948C20.894 59.094 18.7903 56.8579 17.3487 54.2037C17.2113 53.9667 17.1716 53.6855 17.238 53.4198C17.3044 53.154 17.4718 52.9246 17.7045 52.7802C17.8209 52.7084 17.9505 52.6606 18.0856 52.6397C18.2207 52.6187 18.3586 52.625 18.4913 52.6581C18.6239 52.6913 18.7486 52.7507 18.858 52.8328C18.9673 52.9148 19.0591 53.018 19.128 53.1361C19.7291 54.1915 20.4367 55.1787 21.2377 56.0831C22.68 57.7113 25.1634 57.7022 26.5788 56.0506C28.5097 53.7975 30.9056 49.9613 32.3807 43.7838C32.4548 43.5285 32.624 43.3114 32.8533 43.177C33.0827 43.0427 33.3548 43.0014 33.6138 43.0615C33.8727 43.1217 34.0987 43.2788 34.2453 43.5005C34.3919 43.7223 34.448 43.9917 34.402 44.2535C31.3558 57.0649 24.6796 60.5524 24.4376 60.6948C24.278 60.7721 24.1025 60.8111 23.9252 60.8087L-nan -nanZ" fill="white"/>
<path d="M-nan -nanL15.0285 51.9403C14.5925 51.942 14.1604 51.8574 13.7573 51.6912C13.3542 51.5251 12.988 51.2808 12.6797 50.9724L8.58011 46.9012C7.96033 46.2795 7.6123 45.4374 7.6123 44.5596C7.6123 43.6817 7.96033 42.8397 8.58011 42.218L13.7474 37.0507C14.3715 36.4301 15.2159 36.0817 16.0961 36.0817C16.9763 36.0817 17.8207 36.4301 18.4449 37.0507L22.5018 41.1219C23.1224 41.746 23.4708 42.5904 23.4708 43.4706C23.4708 44.3508 23.1224 45.1952 22.5018 45.8194L17.3488 50.9724C16.7332 51.5883 15.8993 51.9362 15.0285 51.9403L-nan -nanZM16.1246 38.161C15.9612 38.1584 15.7989 38.1886 15.6473 38.2497C15.4957 38.3108 15.3579 38.4017 15.242 38.5169L10.089 43.6841C9.97057 43.7971 9.8763 43.933 9.81189 44.0834C9.74748 44.2339 9.71427 44.3959 9.71427 44.5596C9.71427 44.7233 9.74748 44.8852 9.81189 45.0357C9.8763 45.1862 9.97057 45.322 10.089 45.435L14.1459 49.5062C14.3806 49.7392 14.6978 49.8699 15.0285 49.8699C15.3592 49.8699 15.6764 49.7392 15.9111 49.5062L21.0641 44.3532C21.297 44.1185 21.4278 43.8013 21.4278 43.4706C21.4278 43.14 21.297 42.8227 21.0641 42.5881L17.0071 38.5169C16.8864 38.4002 16.7437 38.3086 16.5873 38.2475C16.431 38.1864 16.264 38.157 16.0961 38.161H16.1246Z" fill="white"/>
<path d="M-nan -nanL17.5481 50.1469C17.3584 50.1483 17.1717 50.0992 17.0072 50.0045L8.12466 44.7092C7.88682 44.5695 7.71421 44.341 7.6448 44.0741C7.57539 43.8071 7.61487 43.5235 7.75455 43.2857C7.89424 43.0478 8.12269 42.8752 8.38964 42.8058C8.6566 42.7364 8.94019 42.7759 9.17804 42.9156L18.0748 48.2252C18.1929 48.2941 18.296 48.3859 18.3781 48.4952C18.4602 48.6046 18.5196 48.7293 18.5527 48.8619C18.5859 48.9946 18.5922 49.1325 18.5712 49.2676C18.5503 49.4027 18.5025 49.5323 18.4307 49.6486C18.3405 49.802 18.2113 49.9289 18.0564 50.0164C17.9014 50.1039 17.7261 50.1489 17.5481 50.1469L-nan -nanZ" fill="white"/>
<path d="M19.8968 48.0115C19.8968 48.0036 19.8906 47.9973 19.8827 47.997C19.7011 47.9913 19.5242 47.9374 19.3702 47.8408L10.5529 42.5944C10.3389 42.467 10.1151 42.3352 9.99034 42.1196C9.9297 42.0148 9.88736 41.8994 9.86615 41.7783C9.82321 41.533 9.86979 41.2804 9.99741 41.0666C10.125 40.8527 10.3252 40.6918 10.5615 40.6131C10.6793 40.5739 10.8022 40.5564 10.9244 40.5605C11.171 40.5688 11.3911 40.7014 11.603 40.8278L20.4235 46.0899C20.6206 46.2053 20.7742 46.3823 20.8606 46.5937C20.9469 46.8052 20.9612 47.0391 20.9013 47.2595C20.8413 47.4798 20.7105 47.6743 20.5289 47.8128C20.3512 47.9485 20.1345 48.023 19.9112 48.0258C19.9033 48.0259 19.8968 48.0194 19.8968 48.0115Z" fill="white"/>
<path d="M-nan -nanL22.0324 45.6913C21.8426 45.6928 21.6559 45.6437 21.4915 45.549L12.5662 40.2252C12.3669 40.0707 12.2306 39.8491 12.1826 39.6015C12.1346 39.354 12.1782 39.0975 12.3054 38.8797C12.4326 38.662 12.6345 38.4979 12.8737 38.4181C13.1129 38.3383 13.3729 38.3481 13.6054 38.4458L22.5306 43.7696C22.6487 43.8385 22.7518 43.9303 22.8339 44.0397C22.916 44.1491 22.9754 44.2737 23.0085 44.4064C23.0417 44.539 23.048 44.677 23.027 44.8121C23.006 44.9472 22.9583 45.0767 22.8865 45.1931C22.7987 45.3424 22.6741 45.4666 22.5245 45.5538C22.375 45.641 22.2055 45.6884 22.0324 45.6913L-nan -nanZ" fill="white"/>
<path d="M-nan -nanL19.7402 40.8658C19.4624 40.8603 19.1973 40.7482 19 40.5526C18.8219 40.3583 18.7231 40.1044 18.7231 39.8409C18.7231 39.5773 18.8219 39.3234 19 39.1291L21.4007 36.7284C21.697 36.4321 22.034 36.1095 22.4519 36.1401C22.47 36.1414 22.4881 36.1432 22.5062 36.1455C22.7351 36.1744 22.9478 36.2786 23.1109 36.4417C23.274 36.6048 23.3782 36.8175 23.4071 37.0464C23.4094 37.0644 23.4112 37.0826 23.4125 37.1007C23.4431 37.5186 23.1205 37.8556 22.8242 38.1519L20.4235 40.5526C20.2436 40.7398 19.9994 40.8517 19.7402 40.8658L-nan -nanZ" fill="white"/>
<path d="M25.2066 40.5525C24.9331 40.5463 24.6727 40.434 24.4806 40.2393L19.2991 35.0863C19.118 34.8936 19.0171 34.639 19.0171 34.3745C19.0171 34.1101 19.118 33.8555 19.2991 33.6628L29.6336 21.7482C33.0491 17.7886 36.7763 14.109 40.7795 10.7447L49.1069 3.76964C49.3099 3.60101 49.5689 3.51475 49.8325 3.52793C50.0961 3.54111 50.3451 3.65277 50.5304 3.84081L55.6834 8.99382C55.8645 9.18653 55.9654 9.44107 55.9654 9.70557C55.9654 9.97006 55.8645 10.2246 55.6834 10.4173L48.7225 18.7589C45.3874 22.7781 41.7364 26.5243 37.8044 29.9617L25.9041 40.2962C25.7104 40.4635 25.4625 40.5546 25.2066 40.5525ZM23.223 32.2819C22.2388 33.4214 22.3011 35.1274 23.3658 36.1921C24.4342 37.2605 26.1475 37.319 27.2863 36.326L36.3809 28.3959C40.2405 25.0346 43.8293 21.3744 47.114 17.4493L51.7453 11.9166C52.7255 10.7457 52.6491 9.02005 51.5693 7.94027C50.4897 6.86064 48.7643 6.78413 47.5934 7.76396L42.0749 12.3817C38.1428 15.6639 34.4821 19.258 31.1283 23.129L23.223 32.2819Z" fill="white"/>
<path d="M-nan -nanL55.8972 11.4708C55.6649 11.472 55.4347 11.4273 55.2198 11.3394C55.0048 11.2515 54.8093 11.122 54.6445 10.9583L48.6089 4.92277C48.4437 4.7587 48.3125 4.56355 48.223 4.34856C48.1335 4.13357 48.0874 3.90299 48.0874 3.67011C48.0874 3.43723 48.1335 3.20665 48.223 2.99166C48.3125 2.77667 48.4437 2.58151 48.6089 2.41744L50.0324 0.993958C50.1965 0.828688 50.3917 0.697518 50.6066 0.608007C50.8216 0.518495 51.0522 0.472412 51.2851 0.472412C51.518 0.472412 51.7486 0.518495 51.9635 0.608007C52.1785 0.697518 52.3737 0.828688 52.5378 0.993958L58.5733 7.02953C58.9028 7.36034 59.0878 7.8082 59.0878 8.27508C59.0878 8.74195 58.9028 9.18981 58.5733 9.52063L57.0644 11.0295C56.7421 11.3138 56.327 11.4707 55.8972 11.4708L-nan -nanZM50.8427 3.11771C50.5398 3.39635 50.5281 3.87053 50.8169 4.16373L55.3654 8.78148C55.6585 9.07897 56.1377 9.08078 56.433 8.78551C56.7267 8.49182 56.7267 8.01564 56.433 7.72194L51.8498 3.13868C51.5739 2.86288 51.1297 2.85363 50.8427 3.11771Z" fill="white"/>
</svg>
