<svg width="80" height="47" viewBox="0 0 80 47" fill="none" xmlns="http://www.w3.org/2000/svg">
<path d="M33.3053 21.9504C29.1473 21.9504 25.7422 18.0149 25.7422 13.1724V3.60728C25.7422 2.80857 26.0595 2.04256 26.6243 1.47779C27.1891 0.91301 27.9551 0.595703 28.7538 0.595703H37.874C38.6728 0.595703 39.4388 0.91301 40.0035 1.47779C40.5683 2.04256 40.8856 2.80857 40.8856 3.60728V13.1724C40.8856 18.0149 37.4805 21.9504 33.3053 21.9504ZM28.7538 3.12817C28.6857 3.12578 28.6179 3.13742 28.5546 3.16237C28.4912 3.18733 28.4336 3.22503 28.3855 3.27318C28.3373 3.32134 28.2996 3.37891 28.2747 3.44227C28.2497 3.50563 28.2381 3.57343 28.2405 3.64148V13.2066C28.2405 16.6288 30.5162 19.4864 33.3738 19.4864C36.2314 19.4864 38.5071 16.6802 38.5071 13.2066V3.60728C38.5095 3.53923 38.4979 3.47138 38.4729 3.40801C38.448 3.34465 38.4102 3.28713 38.3621 3.23898C38.3139 3.19083 38.2564 3.15307 38.1931 3.12812C38.1297 3.10317 38.0618 3.09153 37.9938 3.09392L28.7538 3.12817Z" fill="#38BCEA"/>
<path d="M45.9504 21.9504C41.7752 21.9504 38.3872 18.0149 38.3872 13.1724V3.60728C38.3872 2.81152 38.7022 2.04808 39.2632 1.48379C39.8243 0.919505 40.5859 0.600224 41.3817 0.595703H50.519C51.3147 0.600224 52.0764 0.919505 52.6375 1.48379C53.1986 2.04808 53.5135 2.81152 53.5135 3.60728V13.1724C53.5135 18.0149 50.1255 21.9504 45.9504 21.9504ZM41.3817 3.12817C41.315 3.12813 41.2491 3.14149 41.1877 3.16749C41.1264 3.19349 41.0709 3.2316 41.0246 3.2795C40.9783 3.32741 40.9421 3.38415 40.9182 3.44634C40.8943 3.50854 40.8831 3.57489 40.8854 3.64148V13.2066C40.8854 16.6288 43.1612 19.4864 46.0188 19.4864C48.8763 19.4864 51.1521 16.6802 51.1521 13.2066V3.60728C51.1544 3.54069 51.1433 3.47428 51.1194 3.41209C51.0955 3.34989 51.0593 3.29315 51.013 3.24525C50.9667 3.19734 50.9112 3.15929 50.8499 3.13329C50.7885 3.10729 50.7226 3.09388 50.6559 3.09392L41.3817 3.12817Z" fill="#38BCEA"/>
<path d="M57.928 22.4125C54.1293 22.4125 51.0835 18.8192 51.0835 14.4216V5.86602C51.088 5.12019 51.3875 4.40648 51.9164 3.8807C52.4454 3.35491 53.161 3.0598 53.9068 3.05981H62.1031C62.8489 3.0598 63.5644 3.35491 64.0934 3.8807C64.6224 4.40648 64.9219 5.12019 64.9264 5.86602V14.4216C64.858 18.8192 61.7437 22.4125 57.928 22.4125ZM53.8384 5.48957C53.7535 5.49372 53.6732 5.52932 53.6131 5.58941C53.553 5.64951 53.5174 5.7298 53.5132 5.81468V14.3703C53.5132 17.3989 55.4982 19.863 57.928 19.863C60.3577 19.863 62.3597 17.3989 62.3597 14.3703V5.81468C62.3556 5.7298 62.32 5.64951 62.2599 5.58941C62.1998 5.52932 62.1195 5.49372 62.0346 5.48957H53.8384Z" fill="#38BCEA"/>
<path d="M21.3274 22.4125C17.5116 22.4125 14.483 18.8192 14.483 14.4216V5.86602C14.4875 5.12019 14.7869 4.40648 15.3159 3.8807C15.8449 3.35491 16.5605 3.0598 17.3063 3.05981H25.4854C26.2313 3.0598 26.9468 3.35491 27.4758 3.8807C28.0048 4.40648 28.3043 5.12019 28.3088 5.86602V14.4216C28.2404 18.8192 25.1432 22.4125 21.3274 22.4125ZM17.2379 5.48957C17.1517 5.48957 17.0689 5.52385 17.008 5.58482C16.947 5.64579 16.9128 5.72846 16.9128 5.81468V14.3703C16.9128 17.3989 18.8976 19.863 21.3274 19.863C23.7572 19.863 25.7421 17.3989 25.7421 14.3703V5.81468C25.7421 5.72846 25.7079 5.64579 25.6469 5.58482C25.5859 5.52385 25.5032 5.48957 25.417 5.48957H17.2379Z" fill="#38BCEA"/>
<path d="M37.874 46.9501H28.7538C27.9551 46.9501 27.1891 46.6328 26.6243 46.068C26.0595 45.5032 25.7422 44.7372 25.7422 43.9385V34.3734C25.7422 29.5309 29.1644 25.5953 33.3053 25.5953C37.4462 25.5953 40.8856 29.5309 40.8856 34.3734V43.9385C40.8856 44.334 40.8077 44.7256 40.6563 45.091C40.505 45.4563 40.2832 45.7883 40.0035 46.068C39.7239 46.3476 39.3919 46.5695 39.0265 46.7208C38.6611 46.8722 38.2695 46.9501 37.874 46.9501ZM33.3053 28.1278C30.5162 28.1278 28.172 30.9341 28.172 34.4076V43.9727C28.1696 44.0408 28.1813 44.1086 28.2062 44.172C28.2312 44.2353 28.2689 44.2929 28.3171 44.341C28.3652 44.3892 28.4227 44.4269 28.4861 44.4519C28.5495 44.4768 28.6173 44.4884 28.6854 44.4861H37.8056C37.8736 44.4884 37.9414 44.4768 38.0048 44.4519C38.0682 44.4269 38.1257 44.3892 38.1739 44.341C38.222 44.2929 38.2597 44.2353 38.2847 44.172C38.3096 44.1086 38.3213 44.0408 38.3189 43.9727V34.4076C38.3873 30.8998 36.1116 28.0936 33.3053 28.0936V28.1278Z" fill="#38BCEA"/>
<path d="M50.519 46.9501H41.3817C40.5859 46.9455 39.8243 46.6263 39.2632 46.062C38.7022 45.4977 38.3872 44.7342 38.3872 43.9385V34.3734C38.3872 29.5309 41.8095 25.5953 45.9504 25.5953C50.0913 25.5953 53.5135 29.5309 53.5135 34.3734V43.9385C53.5135 44.7342 53.1986 45.4977 52.6375 46.062C52.0764 46.6263 51.3147 46.9455 50.519 46.9501ZM45.9504 28.1278C43.1612 28.1278 40.817 30.9341 40.817 34.4076V43.9727C40.8147 44.0393 40.8258 44.1057 40.8498 44.1679C40.8737 44.2301 40.9098 44.2868 40.9561 44.3347C41.0024 44.3826 41.058 44.4207 41.1193 44.4467C41.1807 44.4727 41.2466 44.4861 41.3132 44.4861H50.4506C50.5172 44.4861 50.5831 44.4727 50.6445 44.4467C50.7058 44.4207 50.7614 44.3826 50.8077 44.3347C50.854 44.2868 50.8901 44.2301 50.914 44.1679C50.9379 44.1057 50.9491 44.0393 50.9468 43.9727V34.4076C51.0152 30.8998 48.7395 28.0936 45.9504 28.0936V28.1278Z" fill="#38BCEA"/>
<path d="M62.0346 44.5374H53.8383C53.0895 44.5374 52.3714 44.24 51.842 43.7105C51.3125 43.181 51.015 42.4629 51.015 41.7141V33.1585C51.015 28.761 54.1292 25.1676 57.8595 25.1676C61.5897 25.1676 64.7895 28.761 64.7895 33.1585V41.7141C64.7897 42.4512 64.5017 43.1591 63.9869 43.6867C63.4721 44.2142 62.7715 44.5196 62.0346 44.5374ZM57.9279 27.6316C55.4981 27.6316 53.5132 30.0957 53.5132 33.1243V41.6799C53.5131 41.7678 53.5468 41.8523 53.6073 41.916C53.6678 41.9797 53.7506 42.0177 53.8383 42.0221H62.0346C62.1224 42.0177 62.2051 41.9797 62.2656 41.916C62.3261 41.8523 62.3598 41.7678 62.3597 41.6799V33.1243C62.3597 30.0957 60.3748 27.6316 57.9279 27.6316Z" fill="#38BCEA"/>
<path d="M25.4169 44.5374H17.2378C16.489 44.5374 15.7708 44.24 15.2414 43.7105C14.7119 43.181 14.4144 42.4629 14.4144 41.7141V33.1585C14.4144 28.761 17.5115 25.1676 21.2589 25.1676C25.0062 25.1676 28.1033 28.761 28.1033 33.1585V41.7141C28.1042 42.4398 27.8256 43.1379 27.3254 43.6636C26.8252 44.1893 26.1418 44.5022 25.4169 44.5374ZM21.3273 27.6316C18.8976 27.6316 16.9127 30.0957 16.9127 33.1243V41.6799C16.9104 41.724 16.917 41.7681 16.9323 41.8096C16.9476 41.851 16.9712 41.8889 17.0016 41.9209C17.032 41.9529 17.0687 41.9784 17.1093 41.9958C17.1499 42.0132 17.1936 42.0222 17.2378 42.0221H25.4169C25.4611 42.0222 25.5048 42.0132 25.5454 41.9958C25.586 41.9784 25.6226 41.9529 25.6531 41.9209C25.6835 41.8889 25.7071 41.851 25.7224 41.8096C25.7377 41.7681 25.7444 41.724 25.7421 41.6799V33.1243C25.7421 30.0957 23.7571 27.6316 21.3273 27.6316Z" fill="#38BCEA"/>
<path d="M63.6092 42.3812C63.3059 42.3734 63.0159 42.2556 62.7932 42.0496C62.5704 41.8436 62.4302 41.5637 62.3988 41.2619C62.3674 40.9602 62.4469 40.6573 62.6224 40.4099C62.7979 40.1624 63.0574 39.9873 63.3525 39.9172C67.0901 39.1551 70.4495 37.1249 72.8622 34.1705C75.275 31.2161 76.5929 27.5189 76.5929 23.7044C76.5929 19.89 75.275 16.1927 72.8622 13.2383C70.4495 10.2838 67.0901 8.25376 63.3525 7.49159C63.0377 7.41621 62.7645 7.22155 62.5904 6.94862C62.4162 6.67569 62.3549 6.34585 62.4192 6.02857C62.4836 5.7113 62.6686 5.43138 62.9353 5.24784C63.2019 5.06431 63.5295 4.99149 63.8488 5.04471C68.1496 5.92287 72.015 8.25968 74.7911 11.6599C77.5672 15.0601 79.0835 19.3149 79.0835 23.7044C79.0835 28.0939 77.5672 32.3487 74.7911 35.7489C72.015 39.1491 68.1496 41.486 63.8488 42.3641L63.6092 42.3812Z" fill="#38BCEA"/>
<path d="M63.609 35.9302C63.4083 35.9282 63.2109 35.8792 63.0326 35.787C62.8543 35.6949 62.7001 35.5623 62.5823 35.3997C62.3952 35.1338 62.3208 34.8048 62.3753 34.4843C62.4298 34.1638 62.6087 33.8777 62.8732 33.6886C64.9836 32.1705 66.5638 30.0277 67.3906 27.5628C66.4021 26.5282 65.8505 25.1523 65.8505 23.7214C65.8505 22.2904 66.4021 20.9146 67.3906 19.8799C66.5638 17.4151 64.9836 15.2723 62.8732 13.7541C62.6087 13.565 62.4298 13.279 62.3753 12.9585C62.3208 12.638 62.3952 12.3089 62.5823 12.043C62.7742 11.7822 63.0599 11.6061 63.3791 11.5519C63.6983 11.4976 64.0261 11.5694 64.2934 11.7521C67.1051 13.7667 69.1214 16.7033 69.9914 20.051C70.058 20.3139 70.0373 20.5913 69.9324 20.8414C69.8274 21.0914 69.6439 21.3005 69.4097 21.437C69.0666 21.7145 68.7899 22.0652 68.5999 22.4634C68.4098 22.8616 68.3112 23.2973 68.3112 23.7385C68.3112 24.1797 68.4098 24.6154 68.5999 25.0136C68.7899 25.4118 69.0666 25.7624 69.4097 26.0399C69.6439 26.1765 69.8274 26.3856 69.9324 26.6356C70.0373 26.8857 70.058 27.1631 69.9914 27.4259C69.1411 30.7874 67.1364 33.7431 64.3276 35.7762C64.1082 35.8965 63.8584 35.95 63.609 35.9302Z" fill="#38BCEA"/>
<path d="M70.0257 28.6753C69.0052 28.8508 67.9554 28.7081 67.0186 28.2667C66.0819 27.8254 65.3035 27.1066 64.7892 26.2078C64.2748 25.3091 64.0493 24.2739 64.1433 23.2426C64.2372 22.2113 64.646 21.2339 65.3143 20.4429C65.9825 19.6518 66.878 19.0855 67.8791 18.8206C68.8801 18.5558 69.9384 18.6052 70.9105 18.9622C71.8825 19.3192 72.7213 19.9665 73.3129 20.8164C73.9046 21.6662 74.2206 22.6775 74.218 23.713C74.3084 24.9244 73.9199 26.1229 73.136 27.0509C72.352 27.9788 71.2352 28.5621 70.0257 28.6753ZM70.0257 21.2319C69.1188 21.2319 68.3146 22.3613 68.3146 23.713C68.3146 25.0648 69.0846 26.177 70.0257 26.177C70.9668 26.177 71.7368 25.0477 71.7368 23.713C71.7368 22.3784 70.9497 21.2319 70.0257 21.2319Z" fill="#38BCEA"/>
<path d="M15.6634 42.3813H15.4067C11.1059 41.5031 7.24049 39.1663 4.4644 35.7661C1.68832 32.3659 0.171997 28.1111 0.171997 23.7216C0.171997 19.3321 1.68832 15.0773 4.4644 11.6771C7.24049 8.2769 11.1059 5.94003 15.4067 5.06188C15.7312 4.99629 16.0684 5.06219 16.3443 5.24506C16.6202 5.42794 16.8122 5.71285 16.8782 6.03723C16.9131 6.19805 16.9154 6.36422 16.885 6.52595C16.8546 6.68767 16.792 6.84168 16.7011 6.97884C16.6102 7.11601 16.4927 7.23356 16.3556 7.32458C16.2185 7.4156 16.0646 7.47826 15.9029 7.50881C12.1654 8.27098 8.80597 10.3011 6.39322 13.2555C3.98047 16.2099 2.66259 19.9071 2.66259 23.7216C2.66259 27.536 3.98047 31.2333 6.39322 34.1877C8.80597 37.1422 12.1654 39.1722 15.9029 39.9344C16.1971 40.0038 16.4562 40.1774 16.6321 40.4232C16.808 40.669 16.8888 40.9702 16.8595 41.2711C16.8303 41.5719 16.693 41.8519 16.473 42.0592C16.2531 42.2665 15.9654 42.387 15.6634 42.3984V42.3813Z" fill="#38BCEA"/>
<path d="M15.6634 35.9303C15.3995 35.9269 15.1429 35.8434 14.9276 35.6907C12.1211 33.6711 10.1062 30.7365 9.22955 27.3918C9.16293 27.129 9.18371 26.8515 9.28866 26.6015C9.39362 26.3514 9.5771 26.1424 9.81137 26.0058C10.1544 25.7283 10.431 25.3776 10.6211 24.9794C10.8111 24.5812 10.9098 24.1456 10.9098 23.7044C10.9098 23.2631 10.8111 22.8275 10.6211 22.4293C10.431 22.0311 10.1544 21.6804 9.81137 21.4029C9.5771 21.2664 9.39362 21.0572 9.28866 20.8072C9.18371 20.5572 9.16293 20.2798 9.22955 20.0169C10.1062 16.6723 12.1211 13.7377 14.9276 11.718C15.0587 11.6046 15.212 11.5198 15.3777 11.4689C15.5434 11.418 15.718 11.4021 15.8901 11.4223C16.0623 11.4425 16.2284 11.4984 16.3778 11.5863C16.5272 11.6741 16.6568 11.7922 16.7581 11.9328C16.8594 12.0735 16.9303 12.2337 16.9663 12.4033C17.0024 12.5728 17.0027 12.7481 16.9674 12.9178C16.932 13.0875 16.8617 13.248 16.7609 13.3891C16.6601 13.5301 16.5311 13.6486 16.382 13.7371C14.2763 15.2562 12.7019 17.3993 11.8818 19.8629C12.8587 20.9035 13.4024 22.2771 13.4024 23.7044C13.4024 25.1316 12.8587 26.5053 11.8818 27.5458C12.7019 30.0094 14.2763 32.1525 16.382 33.6716C16.6465 33.8607 16.8255 34.1467 16.88 34.4672C16.9344 34.7878 16.86 35.1168 16.6729 35.3827C16.5607 35.5481 16.4105 35.6841 16.2348 35.7794C16.0591 35.8747 15.8632 35.9264 15.6634 35.9303Z" fill="#38BCEA"/>
<path d="M9.22977 28.6752C8.20923 28.8544 7.15832 28.7151 6.21965 28.2763C5.28099 27.8376 4.50008 27.1206 3.98295 26.2227C3.46583 25.3248 3.23753 24.2895 3.32907 23.2574C3.42061 22.2254 3.82757 21.2464 4.49465 20.4536C5.16173 19.6608 6.05664 19.0924 7.05788 18.8257C8.05911 18.559 9.11814 18.6069 10.0912 18.9628C11.0643 19.3188 11.9043 19.9656 12.4971 20.8154C13.0899 21.6652 13.4069 22.6769 13.4049 23.713C13.5001 24.9227 13.1155 26.1213 12.3343 27.0498C11.5531 27.9782 10.4379 28.5621 9.22977 28.6752ZM9.22977 21.2319C8.32288 21.2319 7.51866 22.3612 7.51866 23.713C7.51866 25.0648 8.28866 26.177 9.22977 26.177C10.1709 26.177 10.9409 25.0477 10.9409 23.713C10.9409 22.3783 10.1367 21.2319 9.22977 21.2319Z" fill="#38BCEA"/>
</svg>
